<svg xmlns="http://www.w3.org/2000/svg" xmlns:xlink="http://www.w3.org/1999/xlink" version="1.1" x="0" y="0" viewbox="0 0 220 220" width="220" height="220">
<circle xmlns="http://www.w3.org/2000/svg" cx="110.0" cy="110.0" r="107.03" fill="#FFFFFF" stroke-width="5.94" stroke="#222222" />
<g transform="translate(9.826214062903773, 9.826214062903773) scale(0.91)">
<g>
<rect x="94.11321264821683" y="4.598171879934997" width="3.297922554620909" height="3.297922554620909" fill="#222222" rx="2"></rect>
<rect x="98.82453058338956" y="4.598171879934997" width="3.297922554620909" height="3.297922554620909" fill="#222222" rx="2"></rect>
<rect x="103.53584851856229" y="4.598171879934997" width="3.297922554620909" height="3.297922554620909" fill="#222222" rx="2"></rect>
<rect x="112.95848438890775" y="4.598171879934997" width="3.297922554620909" height="3.297922554620909" fill="#222222" rx="2"></rect>
<rect x="122.38112025925321" y="4.598171879934997" width="3.297922554620909" height="3.297922554620909" fill="#222222" rx="2"></rect>
<rect x="75.26794090752591" y="9.309489815107725" width="3.297922554620909" height="3.297922554620909" fill="#222222" rx="2"></rect>
<rect x="89.4018947130441" y="9.309489815107725" width="3.297922554620909" height="3.297922554620909" fill="#222222" rx="2"></rect>
<rect x="94.11321264821683" y="9.309489815107725" width="3.297922554620909" height="3.297922554620909" fill="#222222" rx="2"></rect>
<rect x="98.82453058338956" y="9.309489815107725" width="3.297922554620909" height="3.297922554620909" fill="#222222" rx="2"></rect>
<rect x="103.53584851856229" y="9.309489815107725" width="3.297922554620909" height="3.297922554620909" fill="#222222" rx="2"></rect>
<rect x="136.5150740647714" y="9.309489815107725" width="3.297922554620909" height="3.297922554620909" fill="#222222" rx="2"></rect>
<rect x="141.22639199994413" y="9.309489815107725" width="3.297922554620909" height="3.297922554620909" fill="#222222" rx="2"></rect>
<rect x="75.26794090752591" y="14.020807750280452" width="3.297922554620909" height="3.297922554620909" fill="#222222" rx="2"></rect>
<rect x="79.97925884269864" y="14.020807750280452" width="3.297922554620909" height="3.297922554620909" fill="#222222" rx="2"></rect>
<rect x="103.53584851856229" y="14.020807750280452" width="3.297922554620909" height="3.297922554620909" fill="#222222" rx="2"></rect>
<rect x="112.95848438890775" y="14.020807750280452" width="3.297922554620909" height="3.297922554620909" fill="#222222" rx="2"></rect>
<rect x="117.66980232408048" y="14.020807750280452" width="3.297922554620909" height="3.297922554620909" fill="#222222" rx="2"></rect>
<rect x="127.09243819442594" y="14.020807750280452" width="3.297922554620909" height="3.297922554620909" fill="#222222" rx="2"></rect>
<rect x="131.80375612959867" y="14.020807750280452" width="3.297922554620909" height="3.297922554620909" fill="#222222" rx="2"></rect>
<rect x="155.36034580546232" y="14.020807750280452" width="3.297922554620909" height="3.297922554620909" fill="#222222" rx="2"></rect>
<rect x="51.71135123166228" y="18.732125685453177" width="3.297922554620909" height="3.297922554620909" fill="#222222" rx="2"></rect>
<rect x="65.84530503718045" y="18.732125685453177" width="3.297922554620909" height="3.297922554620909" fill="#222222" rx="2"></rect>
<rect x="84.69057677787137" y="18.732125685453177" width="3.297922554620909" height="3.297922554620909" fill="#222222" rx="2"></rect>
<rect x="94.11321264821683" y="18.732125685453177" width="3.297922554620909" height="3.297922554620909" fill="#222222" rx="2"></rect>
<rect x="103.53584851856229" y="18.732125685453177" width="3.297922554620909" height="3.297922554620909" fill="#222222" rx="2"></rect>
<rect x="108.24716645373502" y="18.732125685453177" width="3.297922554620909" height="3.297922554620909" fill="#222222" rx="2"></rect>
<rect x="112.95848438890775" y="18.732125685453177" width="3.297922554620909" height="3.297922554620909" fill="#222222" rx="2"></rect>
<rect x="141.22639199994413" y="18.732125685453177" width="3.297922554620909" height="3.297922554620909" fill="#222222" rx="2"></rect>
<rect x="145.93770993511686" y="18.732125685453177" width="3.297922554620909" height="3.297922554620909" fill="#222222" rx="2"></rect>
<rect x="150.6490278702896" y="18.732125685453177" width="3.297922554620909" height="3.297922554620909" fill="#222222" rx="2"></rect>
<rect x="155.36034580546232" y="18.732125685453177" width="3.297922554620909" height="3.297922554620909" fill="#222222" rx="2"></rect>
<rect x="160.07166374063505" y="18.732125685453177" width="3.297922554620909" height="3.297922554620909" fill="#222222" rx="2"></rect>
<rect x="61.13398710200774" y="23.443443620625903" width="3.297922554620909" height="3.297922554620909" fill="#222222" rx="2"></rect>
<rect x="75.26794090752591" y="23.443443620625903" width="3.297922554620909" height="3.297922554620909" fill="#222222" rx="2"></rect>
<rect x="79.97925884269864" y="23.443443620625903" width="3.297922554620909" height="3.297922554620909" fill="#222222" rx="2"></rect>
<rect x="108.24716645373502" y="23.443443620625903" width="3.297922554620909" height="3.297922554620909" fill="#222222" rx="2"></rect>
<rect x="117.66980232408048" y="23.443443620625903" width="3.297922554620909" height="3.297922554620909" fill="#222222" rx="2"></rect>
<rect x="127.09243819442594" y="23.443443620625903" width="3.297922554620909" height="3.297922554620909" fill="#222222" rx="2"></rect>
<rect x="136.5150740647714" y="23.443443620625903" width="3.297922554620909" height="3.297922554620909" fill="#222222" rx="2"></rect>
<rect x="150.6490278702896" y="23.443443620625903" width="3.297922554620909" height="3.297922554620909" fill="#222222" rx="2"></rect>
<rect x="155.36034580546232" y="23.443443620625903" width="3.297922554620909" height="3.297922554620909" fill="#222222" rx="2"></rect>
<rect x="193.05088928684415" y="47.00003329648955" width="3.297922554620909" height="3.297922554620909" fill="#222222" rx="2"></rect>
<rect x="18.732125685453177" y="51.71135123166228" width="3.297922554620909" height="3.297922554620909" fill="#222222" rx="2"></rect>
<rect x="23.443443620625903" y="51.71135123166228" width="3.297922554620909" height="3.297922554620909" fill="#222222" rx="2"></rect>
<rect x="23.443443620625903" y="56.42266916683501" width="3.297922554620909" height="3.297922554620909" fill="#222222" rx="2"></rect>
<rect x="197.76220722201688" y="61.13398710200774" width="3.297922554620909" height="3.297922554620909" fill="#222222" rx="2"></rect>
<rect x="14.020807750280452" y="65.84530503718045" width="3.297922554620909" height="3.297922554620909" fill="#222222" rx="2"></rect>
<rect x="197.76220722201688" y="65.84530503718045" width="3.297922554620909" height="3.297922554620909" fill="#222222" rx="2"></rect>
<rect x="202.4735251571896" y="65.84530503718045" width="3.297922554620909" height="3.297922554620909" fill="#222222" rx="2"></rect>
<rect x="23.443443620625903" y="70.55662297235318" width="3.297922554620909" height="3.297922554620909" fill="#222222" rx="2"></rect>
<rect x="193.05088928684415" y="70.55662297235318" width="3.297922554620909" height="3.297922554620909" fill="#222222" rx="2"></rect>
<rect x="197.76220722201688" y="70.55662297235318" width="3.297922554620909" height="3.297922554620909" fill="#222222" rx="2"></rect>
<rect x="202.4735251571896" y="70.55662297235318" width="3.297922554620909" height="3.297922554620909" fill="#222222" rx="2"></rect>
<rect x="14.020807750280452" y="75.26794090752591" width="3.297922554620909" height="3.297922554620909" fill="#222222" rx="2"></rect>
<rect x="18.732125685453177" y="75.26794090752591" width="3.297922554620909" height="3.297922554620909" fill="#222222" rx="2"></rect>
<rect x="23.443443620625903" y="75.26794090752591" width="3.297922554620909" height="3.297922554620909" fill="#222222" rx="2"></rect>
<rect x="202.4735251571896" y="75.26794090752591" width="3.297922554620909" height="3.297922554620909" fill="#222222" rx="2"></rect>
<rect x="207.18484309236234" y="75.26794090752591" width="3.297922554620909" height="3.297922554620909" fill="#222222" rx="2"></rect>
<rect x="18.732125685453177" y="79.97925884269864" width="3.297922554620909" height="3.297922554620909" fill="#222222" rx="2"></rect>
<rect x="197.76220722201688" y="79.97925884269864" width="3.297922554620909" height="3.297922554620909" fill="#222222" rx="2"></rect>
<rect x="202.4735251571896" y="79.97925884269864" width="3.297922554620909" height="3.297922554620909" fill="#222222" rx="2"></rect>
<rect x="207.18484309236234" y="79.97925884269864" width="3.297922554620909" height="3.297922554620909" fill="#222222" rx="2"></rect>
<rect x="9.309489815107725" y="84.69057677787137" width="3.297922554620909" height="3.297922554620909" fill="#222222" rx="2"></rect>
<rect x="14.020807750280452" y="84.69057677787137" width="3.297922554620909" height="3.297922554620909" fill="#222222" rx="2"></rect>
<rect x="18.732125685453177" y="84.69057677787137" width="3.297922554620909" height="3.297922554620909" fill="#222222" rx="2"></rect>
<rect x="197.76220722201688" y="84.69057677787137" width="3.297922554620909" height="3.297922554620909" fill="#222222" rx="2"></rect>
<rect x="207.18484309236234" y="84.69057677787137" width="3.297922554620909" height="3.297922554620909" fill="#222222" rx="2"></rect>
<rect x="14.020807750280452" y="89.4018947130441" width="3.297922554620909" height="3.297922554620909" fill="#222222" rx="2"></rect>
<rect x="18.732125685453177" y="89.4018947130441" width="3.297922554620909" height="3.297922554620909" fill="#222222" rx="2"></rect>
<rect x="23.443443620625903" y="89.4018947130441" width="3.297922554620909" height="3.297922554620909" fill="#222222" rx="2"></rect>
<rect x="193.05088928684415" y="89.4018947130441" width="3.297922554620909" height="3.297922554620909" fill="#222222" rx="2"></rect>
<rect x="197.76220722201688" y="89.4018947130441" width="3.297922554620909" height="3.297922554620909" fill="#222222" rx="2"></rect>
<rect x="202.4735251571896" y="89.4018947130441" width="3.297922554620909" height="3.297922554620909" fill="#222222" rx="2"></rect>
<rect x="207.18484309236234" y="89.4018947130441" width="3.297922554620909" height="3.297922554620909" fill="#222222" rx="2"></rect>
<rect x="4.598171879934997" y="94.11321264821683" width="3.297922554620909" height="3.297922554620909" fill="#222222" rx="2"></rect>
<rect x="9.309489815107725" y="94.11321264821683" width="3.297922554620909" height="3.297922554620909" fill="#222222" rx="2"></rect>
<rect x="14.020807750280452" y="94.11321264821683" width="3.297922554620909" height="3.297922554620909" fill="#222222" rx="2"></rect>
<rect x="193.05088928684415" y="94.11321264821683" width="3.297922554620909" height="3.297922554620909" fill="#222222" rx="2"></rect>
<rect x="197.76220722201688" y="94.11321264821683" width="3.297922554620909" height="3.297922554620909" fill="#222222" rx="2"></rect>
<rect x="202.4735251571896" y="94.11321264821683" width="3.297922554620909" height="3.297922554620909" fill="#222222" rx="2"></rect>
<rect x="207.18484309236234" y="94.11321264821683" width="3.297922554620909" height="3.297922554620909" fill="#222222" rx="2"></rect>
<rect x="9.309489815107725" y="98.82453058338956" width="3.297922554620909" height="3.297922554620909" fill="#222222" rx="2"></rect>
<rect x="14.020807750280452" y="98.82453058338956" width="3.297922554620909" height="3.297922554620909" fill="#222222" rx="2"></rect>
<rect x="23.443443620625903" y="98.82453058338956" width="3.297922554620909" height="3.297922554620909" fill="#222222" rx="2"></rect>
<rect x="193.05088928684415" y="98.82453058338956" width="3.297922554620909" height="3.297922554620909" fill="#222222" rx="2"></rect>
<rect x="207.18484309236234" y="98.82453058338956" width="3.297922554620909" height="3.297922554620909" fill="#222222" rx="2"></rect>
<rect x="211.89616102753507" y="98.82453058338956" width="3.297922554620909" height="3.297922554620909" fill="#222222" rx="2"></rect>
<rect x="4.598171879934997" y="103.53584851856229" width="3.297922554620909" height="3.297922554620909" fill="#222222" rx="2"></rect>
<rect x="23.443443620625903" y="103.53584851856229" width="3.297922554620909" height="3.297922554620909" fill="#222222" rx="2"></rect>
<rect x="4.598171879934997" y="108.24716645373502" width="3.297922554620909" height="3.297922554620909" fill="#222222" rx="2"></rect>
<rect x="14.020807750280452" y="108.24716645373502" width="3.297922554620909" height="3.297922554620909" fill="#222222" rx="2"></rect>
<rect x="18.732125685453177" y="108.24716645373502" width="3.297922554620909" height="3.297922554620909" fill="#222222" rx="2"></rect>
<rect x="23.443443620625903" y="108.24716645373502" width="3.297922554620909" height="3.297922554620909" fill="#222222" rx="2"></rect>
<rect x="193.05088928684415" y="108.24716645373502" width="3.297922554620909" height="3.297922554620909" fill="#222222" rx="2"></rect>
<rect x="197.76220722201688" y="108.24716645373502" width="3.297922554620909" height="3.297922554620909" fill="#222222" rx="2"></rect>
<rect x="202.4735251571896" y="108.24716645373502" width="3.297922554620909" height="3.297922554620909" fill="#222222" rx="2"></rect>
<rect x="207.18484309236234" y="108.24716645373502" width="3.297922554620909" height="3.297922554620909" fill="#222222" rx="2"></rect>
<rect x="4.598171879934997" y="112.95848438890775" width="3.297922554620909" height="3.297922554620909" fill="#222222" rx="2"></rect>
<rect x="23.443443620625903" y="112.95848438890775" width="3.297922554620909" height="3.297922554620909" fill="#222222" rx="2"></rect>
<rect x="193.05088928684415" y="112.95848438890775" width="3.297922554620909" height="3.297922554620909" fill="#222222" rx="2"></rect>
<rect x="9.309489815107725" y="117.66980232408048" width="3.297922554620909" height="3.297922554620909" fill="#222222" rx="2"></rect>
<rect x="14.020807750280452" y="117.66980232408048" width="3.297922554620909" height="3.297922554620909" fill="#222222" rx="2"></rect>
<rect x="18.732125685453177" y="117.66980232408048" width="3.297922554620909" height="3.297922554620909" fill="#222222" rx="2"></rect>
<rect x="23.443443620625903" y="117.66980232408048" width="3.297922554620909" height="3.297922554620909" fill="#222222" rx="2"></rect>
<rect x="193.05088928684415" y="117.66980232408048" width="3.297922554620909" height="3.297922554620909" fill="#222222" rx="2"></rect>
<rect x="202.4735251571896" y="117.66980232408048" width="3.297922554620909" height="3.297922554620909" fill="#222222" rx="2"></rect>
<rect x="14.020807750280452" y="122.38112025925321" width="3.297922554620909" height="3.297922554620909" fill="#222222" rx="2"></rect>
<rect x="23.443443620625903" y="122.38112025925321" width="3.297922554620909" height="3.297922554620909" fill="#222222" rx="2"></rect>
<rect x="202.4735251571896" y="122.38112025925321" width="3.297922554620909" height="3.297922554620909" fill="#222222" rx="2"></rect>
<rect x="207.18484309236234" y="122.38112025925321" width="3.297922554620909" height="3.297922554620909" fill="#222222" rx="2"></rect>
<rect x="9.309489815107725" y="127.09243819442594" width="3.297922554620909" height="3.297922554620909" fill="#222222" rx="2"></rect>
<rect x="9.309489815107725" y="131.80375612959867" width="3.297922554620909" height="3.297922554620909" fill="#222222" rx="2"></rect>
<rect x="193.05088928684415" y="131.80375612959867" width="3.297922554620909" height="3.297922554620909" fill="#222222" rx="2"></rect>
<rect x="197.76220722201688" y="131.80375612959867" width="3.297922554620909" height="3.297922554620909" fill="#222222" rx="2"></rect>
<rect x="207.18484309236234" y="131.80375612959867" width="3.297922554620909" height="3.297922554620909" fill="#222222" rx="2"></rect>
<rect x="14.020807750280452" y="136.5150740647714" width="3.297922554620909" height="3.297922554620909" fill="#222222" rx="2"></rect>
<rect x="18.732125685453177" y="136.5150740647714" width="3.297922554620909" height="3.297922554620909" fill="#222222" rx="2"></rect>
<rect x="197.76220722201688" y="136.5150740647714" width="3.297922554620909" height="3.297922554620909" fill="#222222" rx="2"></rect>
<rect x="202.4735251571896" y="136.5150740647714" width="3.297922554620909" height="3.297922554620909" fill="#222222" rx="2"></rect>
<rect x="9.309489815107725" y="141.22639199994413" width="3.297922554620909" height="3.297922554620909" fill="#222222" rx="2"></rect>
<rect x="18.732125685453177" y="141.22639199994413" width="3.297922554620909" height="3.297922554620909" fill="#222222" rx="2"></rect>
<rect x="197.76220722201688" y="141.22639199994413" width="3.297922554620909" height="3.297922554620909" fill="#222222" rx="2"></rect>
<rect x="18.732125685453177" y="145.93770993511686" width="3.297922554620909" height="3.297922554620909" fill="#222222" rx="2"></rect>
<rect x="14.020807750280452" y="150.6490278702896" width="3.297922554620909" height="3.297922554620909" fill="#222222" rx="2"></rect>
<rect x="18.732125685453177" y="150.6490278702896" width="3.297922554620909" height="3.297922554620909" fill="#222222" rx="2"></rect>
<rect x="23.443443620625903" y="150.6490278702896" width="3.297922554620909" height="3.297922554620909" fill="#222222" rx="2"></rect>
<rect x="197.76220722201688" y="150.6490278702896" width="3.297922554620909" height="3.297922554620909" fill="#222222" rx="2"></rect>
<rect x="14.020807750280452" y="155.36034580546232" width="3.297922554620909" height="3.297922554620909" fill="#222222" rx="2"></rect>
<rect x="23.443443620625903" y="160.07166374063505" width="3.297922554620909" height="3.297922554620909" fill="#222222" rx="2"></rect>
<rect x="197.76220722201688" y="160.07166374063505" width="3.297922554620909" height="3.297922554620909" fill="#222222" rx="2"></rect>
<rect x="23.443443620625903" y="164.78298167580778" width="3.297922554620909" height="3.297922554620909" fill="#222222" rx="2"></rect>
<rect x="23.443443620625903" y="169.4942996109805" width="3.297922554620909" height="3.297922554620909" fill="#222222" rx="2"></rect>
<rect x="47.00003329648955" y="193.05088928684415" width="3.297922554620909" height="3.297922554620909" fill="#222222" rx="2"></rect>
<rect x="61.13398710200774" y="193.05088928684415" width="3.297922554620909" height="3.297922554620909" fill="#222222" rx="2"></rect>
<rect x="70.55662297235318" y="193.05088928684415" width="3.297922554620909" height="3.297922554620909" fill="#222222" rx="2"></rect>
<rect x="75.26794090752591" y="193.05088928684415" width="3.297922554620909" height="3.297922554620909" fill="#222222" rx="2"></rect>
<rect x="84.69057677787137" y="193.05088928684415" width="3.297922554620909" height="3.297922554620909" fill="#222222" rx="2"></rect>
<rect x="98.82453058338956" y="193.05088928684415" width="3.297922554620909" height="3.297922554620909" fill="#222222" rx="2"></rect>
<rect x="108.24716645373502" y="193.05088928684415" width="3.297922554620909" height="3.297922554620909" fill="#222222" rx="2"></rect>
<rect x="127.09243819442594" y="193.05088928684415" width="3.297922554620909" height="3.297922554620909" fill="#222222" rx="2"></rect>
<rect x="141.22639199994413" y="193.05088928684415" width="3.297922554620909" height="3.297922554620909" fill="#222222" rx="2"></rect>
<rect x="145.93770993511686" y="193.05088928684415" width="3.297922554620909" height="3.297922554620909" fill="#222222" rx="2"></rect>
<rect x="155.36034580546232" y="193.05088928684415" width="3.297922554620909" height="3.297922554620909" fill="#222222" rx="2"></rect>
<rect x="160.07166374063505" y="193.05088928684415" width="3.297922554620909" height="3.297922554620909" fill="#222222" rx="2"></rect>
<rect x="164.78298167580778" y="193.05088928684415" width="3.297922554620909" height="3.297922554620909" fill="#222222" rx="2"></rect>
<rect x="61.13398710200774" y="197.76220722201688" width="3.297922554620909" height="3.297922554620909" fill="#222222" rx="2"></rect>
<rect x="65.84530503718045" y="197.76220722201688" width="3.297922554620909" height="3.297922554620909" fill="#222222" rx="2"></rect>
<rect x="70.55662297235318" y="197.76220722201688" width="3.297922554620909" height="3.297922554620909" fill="#222222" rx="2"></rect>
<rect x="75.26794090752591" y="197.76220722201688" width="3.297922554620909" height="3.297922554620909" fill="#222222" rx="2"></rect>
<rect x="84.69057677787137" y="197.76220722201688" width="3.297922554620909" height="3.297922554620909" fill="#222222" rx="2"></rect>
<rect x="94.11321264821683" y="197.76220722201688" width="3.297922554620909" height="3.297922554620909" fill="#222222" rx="2"></rect>
<rect x="122.38112025925321" y="197.76220722201688" width="3.297922554620909" height="3.297922554620909" fill="#222222" rx="2"></rect>
<rect x="131.80375612959867" y="197.76220722201688" width="3.297922554620909" height="3.297922554620909" fill="#222222" rx="2"></rect>
<rect x="141.22639199994413" y="197.76220722201688" width="3.297922554620909" height="3.297922554620909" fill="#222222" rx="2"></rect>
<rect x="145.93770993511686" y="197.76220722201688" width="3.297922554620909" height="3.297922554620909" fill="#222222" rx="2"></rect>
<rect x="155.36034580546232" y="197.76220722201688" width="3.297922554620909" height="3.297922554620909" fill="#222222" rx="2"></rect>
<rect x="65.84530503718045" y="202.4735251571896" width="3.297922554620909" height="3.297922554620909" fill="#222222" rx="2"></rect>
<rect x="70.55662297235318" y="202.4735251571896" width="3.297922554620909" height="3.297922554620909" fill="#222222" rx="2"></rect>
<rect x="84.69057677787137" y="202.4735251571896" width="3.297922554620909" height="3.297922554620909" fill="#222222" rx="2"></rect>
<rect x="89.4018947130441" y="202.4735251571896" width="3.297922554620909" height="3.297922554620909" fill="#222222" rx="2"></rect>
<rect x="94.11321264821683" y="202.4735251571896" width="3.297922554620909" height="3.297922554620909" fill="#222222" rx="2"></rect>
<rect x="98.82453058338956" y="202.4735251571896" width="3.297922554620909" height="3.297922554620909" fill="#222222" rx="2"></rect>
<rect x="103.53584851856229" y="202.4735251571896" width="3.297922554620909" height="3.297922554620909" fill="#222222" rx="2"></rect>
<rect x="117.66980232408048" y="202.4735251571896" width="3.297922554620909" height="3.297922554620909" fill="#222222" rx="2"></rect>
<rect x="131.80375612959867" y="202.4735251571896" width="3.297922554620909" height="3.297922554620909" fill="#222222" rx="2"></rect>
<rect x="136.5150740647714" y="202.4735251571896" width="3.297922554620909" height="3.297922554620909" fill="#222222" rx="2"></rect>
<rect x="141.22639199994413" y="202.4735251571896" width="3.297922554620909" height="3.297922554620909" fill="#222222" rx="2"></rect>
<rect x="75.26794090752591" y="207.18484309236234" width="3.297922554620909" height="3.297922554620909" fill="#222222" rx="2"></rect>
<rect x="84.69057677787137" y="207.18484309236234" width="3.297922554620909" height="3.297922554620909" fill="#222222" rx="2"></rect>
<rect x="98.82453058338956" y="207.18484309236234" width="3.297922554620909" height="3.297922554620909" fill="#222222" rx="2"></rect>
<rect x="108.24716645373502" y="207.18484309236234" width="3.297922554620909" height="3.297922554620909" fill="#222222" rx="2"></rect>
<rect x="112.95848438890775" y="207.18484309236234" width="3.297922554620909" height="3.297922554620909" fill="#222222" rx="2"></rect>
<rect x="117.66980232408048" y="207.18484309236234" width="3.297922554620909" height="3.297922554620909" fill="#222222" rx="2"></rect>
<rect x="127.09243819442594" y="207.18484309236234" width="3.297922554620909" height="3.297922554620909" fill="#222222" rx="2"></rect>
<rect x="131.80375612959867" y="207.18484309236234" width="3.297922554620909" height="3.297922554620909" fill="#222222" rx="2"></rect>
<rect x="141.22639199994413" y="207.18484309236234" width="3.297922554620909" height="3.297922554620909" fill="#222222" rx="2"></rect>
<rect x="94.11321264821683" y="211.89616102753507" width="3.297922554620909" height="3.297922554620909" fill="#222222" rx="2"></rect>
<rect x="103.53584851856229" y="211.89616102753507" width="3.297922554620909" height="3.297922554620909" fill="#222222" rx="2"></rect>
<rect x="108.24716645373502" y="211.89616102753507" width="3.297922554620909" height="3.297922554620909" fill="#222222" rx="2"></rect>
<rect x="112.95848438890775" y="211.89616102753507" width="3.297922554620909" height="3.297922554620909" fill="#222222" rx="2"></rect>
</g>
<g transform="translate(32.21825406965, 32.21825406965)">
<g>
<rect x="2.3556589675863635" y="2.3556589675863635" width="28.267907611036364" fill="none" height="28.267907611036364" stroke-width="4.711317935172727" stroke="#222222"></rect>
<rect x="9.422635870345454" y="9.422635870345454" width="14.133953805518182" fill="#222222" height="14.133953805518182"></rect>
<rect x="124.93992528207727" y="2.3556589675863635" width="28.267907611036364" fill="none" height="28.267907611036364" stroke-width="4.711317935172727" stroke="#222222"></rect>
<rect x="132.00690218483635" y="9.422635870345454" width="14.133953805518182" fill="#222222" height="14.133953805518182"></rect>
<rect x="2.3556589675863635" y="124.93992528207727" width="28.267907611036364" fill="none" height="28.267907611036364" stroke-width="4.711317935172727" stroke="#222222"></rect>
<rect x="9.422635870345454" y="132.00690218483635" width="14.133953805518182" fill="#222222" height="14.133953805518182"></rect>
</g>
<g>
<rect x="0.751697690275909" y="0.751697690275909" width="3.297922554620909" height="3.297922554620909" fill="#222222" rx="2"></rect>
<rect x="5.4630156254486355" y="0.751697690275909" width="3.297922554620909" height="3.297922554620909" fill="#222222" rx="2"></rect>
<rect x="10.174333560621363" y="0.751697690275909" width="3.297922554620909" height="3.297922554620909" fill="#222222" rx="2"></rect>
<rect x="14.885651495794091" y="0.751697690275909" width="3.297922554620909" height="3.297922554620909" fill="#222222" rx="2"></rect>
<rect x="19.59696943096682" y="0.751697690275909" width="3.297922554620909" height="3.297922554620909" fill="#222222" rx="2"></rect>
<rect x="24.308287366139545" y="0.751697690275909" width="3.297922554620909" height="3.297922554620909" fill="#222222" rx="2"></rect>
<rect x="29.019605301312275" y="0.751697690275909" width="3.297922554620909" height="3.297922554620909" fill="#222222" rx="2"></rect>
<rect x="38.44224117165773" y="0.751697690275909" width="3.297922554620909" height="3.297922554620909" fill="#222222" rx="2"></rect>
<rect x="47.86487704200318" y="0.751697690275909" width="3.297922554620909" height="3.297922554620909" fill="#222222" rx="2"></rect>
<rect x="57.28751291234864" y="0.751697690275909" width="3.297922554620909" height="3.297922554620909" fill="#222222" rx="2"></rect>
<rect x="61.99883084752136" y="0.751697690275909" width="3.297922554620909" height="3.297922554620909" fill="#222222" rx="2"></rect>
<rect x="76.13278465303954" y="0.751697690275909" width="3.297922554620909" height="3.297922554620909" fill="#222222" rx="2"></rect>
<rect x="94.97805639373044" y="0.751697690275909" width="3.297922554620909" height="3.297922554620909" fill="#222222" rx="2"></rect>
<rect x="109.11201019924863" y="0.751697690275909" width="3.297922554620909" height="3.297922554620909" fill="#222222" rx="2"></rect>
<rect x="113.82332813442136" y="0.751697690275909" width="3.297922554620909" height="3.297922554620909" fill="#222222" rx="2"></rect>
<rect x="123.2459640047668" y="0.751697690275909" width="3.297922554620909" height="3.297922554620909" fill="#222222" rx="2"></rect>
<rect x="127.95728193993953" y="0.751697690275909" width="3.297922554620909" height="3.297922554620909" fill="#222222" rx="2"></rect>
<rect x="132.66859987511225" y="0.751697690275909" width="3.297922554620909" height="3.297922554620909" fill="#222222" rx="2"></rect>
<rect x="137.37991781028498" y="0.751697690275909" width="3.297922554620909" height="3.297922554620909" fill="#222222" rx="2"></rect>
<rect x="142.0912357454577" y="0.751697690275909" width="3.297922554620909" height="3.297922554620909" fill="#222222" rx="2"></rect>
<rect x="146.80255368063044" y="0.751697690275909" width="3.297922554620909" height="3.297922554620909" fill="#222222" rx="2"></rect>
<rect x="151.51387161580317" y="0.751697690275909" width="3.297922554620909" height="3.297922554620909" fill="#222222" rx="2"></rect>
<rect x="0.751697690275909" y="5.4630156254486355" width="3.297922554620909" height="3.297922554620909" fill="#222222" rx="2"></rect>
<rect x="29.019605301312275" y="5.4630156254486355" width="3.297922554620909" height="3.297922554620909" fill="#222222" rx="2"></rect>
<rect x="38.44224117165773" y="5.4630156254486355" width="3.297922554620909" height="3.297922554620909" fill="#222222" rx="2"></rect>
<rect x="43.15355910683046" y="5.4630156254486355" width="3.297922554620909" height="3.297922554620909" fill="#222222" rx="2"></rect>
<rect x="47.86487704200318" y="5.4630156254486355" width="3.297922554620909" height="3.297922554620909" fill="#222222" rx="2"></rect>
<rect x="57.28751291234864" y="5.4630156254486355" width="3.297922554620909" height="3.297922554620909" fill="#222222" rx="2"></rect>
<rect x="66.71014878269408" y="5.4630156254486355" width="3.297922554620909" height="3.297922554620909" fill="#222222" rx="2"></rect>
<rect x="71.4214667178668" y="5.4630156254486355" width="3.297922554620909" height="3.297922554620909" fill="#222222" rx="2"></rect>
<rect x="76.13278465303954" y="5.4630156254486355" width="3.297922554620909" height="3.297922554620909" fill="#222222" rx="2"></rect>
<rect x="80.84410258821227" y="5.4630156254486355" width="3.297922554620909" height="3.297922554620909" fill="#222222" rx="2"></rect>
<rect x="90.26673845855771" y="5.4630156254486355" width="3.297922554620909" height="3.297922554620909" fill="#222222" rx="2"></rect>
<rect x="104.4006922640759" y="5.4630156254486355" width="3.297922554620909" height="3.297922554620909" fill="#222222" rx="2"></rect>
<rect x="113.82332813442136" y="5.4630156254486355" width="3.297922554620909" height="3.297922554620909" fill="#222222" rx="2"></rect>
<rect x="123.2459640047668" y="5.4630156254486355" width="3.297922554620909" height="3.297922554620909" fill="#222222" rx="2"></rect>
<rect x="151.51387161580317" y="5.4630156254486355" width="3.297922554620909" height="3.297922554620909" fill="#222222" rx="2"></rect>
<rect x="0.751697690275909" y="10.174333560621363" width="3.297922554620909" height="3.297922554620909" fill="#222222" rx="2"></rect>
<rect x="10.174333560621363" y="10.174333560621363" width="3.297922554620909" height="3.297922554620909" fill="#222222" rx="2"></rect>
<rect x="14.885651495794091" y="10.174333560621363" width="3.297922554620909" height="3.297922554620909" fill="#222222" rx="2"></rect>
<rect x="19.59696943096682" y="10.174333560621363" width="3.297922554620909" height="3.297922554620909" fill="#222222" rx="2"></rect>
<rect x="29.019605301312275" y="10.174333560621363" width="3.297922554620909" height="3.297922554620909" fill="#222222" rx="2"></rect>
<rect x="38.44224117165773" y="10.174333560621363" width="3.297922554620909" height="3.297922554620909" fill="#222222" rx="2"></rect>
<rect x="43.15355910683046" y="10.174333560621363" width="3.297922554620909" height="3.297922554620909" fill="#222222" rx="2"></rect>
<rect x="47.86487704200318" y="10.174333560621363" width="3.297922554620909" height="3.297922554620909" fill="#222222" rx="2"></rect>
<rect x="52.57619497717591" y="10.174333560621363" width="3.297922554620909" height="3.297922554620909" fill="#222222" rx="2"></rect>
<rect x="57.28751291234864" y="10.174333560621363" width="3.297922554620909" height="3.297922554620909" fill="#222222" rx="2"></rect>
<rect x="71.4214667178668" y="10.174333560621363" width="3.297922554620909" height="3.297922554620909" fill="#222222" rx="2"></rect>
<rect x="80.84410258821227" y="10.174333560621363" width="3.297922554620909" height="3.297922554620909" fill="#222222" rx="2"></rect>
<rect x="94.97805639373044" y="10.174333560621363" width="3.297922554620909" height="3.297922554620909" fill="#222222" rx="2"></rect>
<rect x="99.68937432890317" y="10.174333560621363" width="3.297922554620909" height="3.297922554620909" fill="#222222" rx="2"></rect>
<rect x="109.11201019924863" y="10.174333560621363" width="3.297922554620909" height="3.297922554620909" fill="#222222" rx="2"></rect>
<rect x="113.82332813442136" y="10.174333560621363" width="3.297922554620909" height="3.297922554620909" fill="#222222" rx="2"></rect>
<rect x="123.2459640047668" y="10.174333560621363" width="3.297922554620909" height="3.297922554620909" fill="#222222" rx="2"></rect>
<rect x="132.66859987511225" y="10.174333560621363" width="3.297922554620909" height="3.297922554620909" fill="#222222" rx="2"></rect>
<rect x="137.37991781028498" y="10.174333560621363" width="3.297922554620909" height="3.297922554620909" fill="#222222" rx="2"></rect>
<rect x="142.0912357454577" y="10.174333560621363" width="3.297922554620909" height="3.297922554620909" fill="#222222" rx="2"></rect>
<rect x="151.51387161580317" y="10.174333560621363" width="3.297922554620909" height="3.297922554620909" fill="#222222" rx="2"></rect>
<rect x="0.751697690275909" y="14.885651495794091" width="3.297922554620909" height="3.297922554620909" fill="#222222" rx="2"></rect>
<rect x="10.174333560621363" y="14.885651495794091" width="3.297922554620909" height="3.297922554620909" fill="#222222" rx="2"></rect>
<rect x="14.885651495794091" y="14.885651495794091" width="3.297922554620909" height="3.297922554620909" fill="#222222" rx="2"></rect>
<rect x="19.59696943096682" y="14.885651495794091" width="3.297922554620909" height="3.297922554620909" fill="#222222" rx="2"></rect>
<rect x="29.019605301312275" y="14.885651495794091" width="3.297922554620909" height="3.297922554620909" fill="#222222" rx="2"></rect>
<rect x="47.86487704200318" y="14.885651495794091" width="3.297922554620909" height="3.297922554620909" fill="#222222" rx="2"></rect>
<rect x="61.99883084752136" y="14.885651495794091" width="3.297922554620909" height="3.297922554620909" fill="#222222" rx="2"></rect>
<rect x="71.4214667178668" y="14.885651495794091" width="3.297922554620909" height="3.297922554620909" fill="#222222" rx="2"></rect>
<rect x="94.97805639373044" y="14.885651495794091" width="3.297922554620909" height="3.297922554620909" fill="#222222" rx="2"></rect>
<rect x="104.4006922640759" y="14.885651495794091" width="3.297922554620909" height="3.297922554620909" fill="#222222" rx="2"></rect>
<rect x="109.11201019924863" y="14.885651495794091" width="3.297922554620909" height="3.297922554620909" fill="#222222" rx="2"></rect>
<rect x="123.2459640047668" y="14.885651495794091" width="3.297922554620909" height="3.297922554620909" fill="#222222" rx="2"></rect>
<rect x="132.66859987511225" y="14.885651495794091" width="3.297922554620909" height="3.297922554620909" fill="#222222" rx="2"></rect>
<rect x="137.37991781028498" y="14.885651495794091" width="3.297922554620909" height="3.297922554620909" fill="#222222" rx="2"></rect>
<rect x="142.0912357454577" y="14.885651495794091" width="3.297922554620909" height="3.297922554620909" fill="#222222" rx="2"></rect>
<rect x="151.51387161580317" y="14.885651495794091" width="3.297922554620909" height="3.297922554620909" fill="#222222" rx="2"></rect>
<rect x="0.751697690275909" y="19.59696943096682" width="3.297922554620909" height="3.297922554620909" fill="#222222" rx="2"></rect>
<rect x="10.174333560621363" y="19.59696943096682" width="3.297922554620909" height="3.297922554620909" fill="#222222" rx="2"></rect>
<rect x="14.885651495794091" y="19.59696943096682" width="3.297922554620909" height="3.297922554620909" fill="#222222" rx="2"></rect>
<rect x="19.59696943096682" y="19.59696943096682" width="3.297922554620909" height="3.297922554620909" fill="#222222" rx="2"></rect>
<rect x="29.019605301312275" y="19.59696943096682" width="3.297922554620909" height="3.297922554620909" fill="#222222" rx="2"></rect>
<rect x="52.57619497717591" y="19.59696943096682" width="3.297922554620909" height="3.297922554620909" fill="#222222" rx="2"></rect>
<rect x="57.28751291234864" y="19.59696943096682" width="3.297922554620909" height="3.297922554620909" fill="#222222" rx="2"></rect>
<rect x="80.84410258821227" y="19.59696943096682" width="3.297922554620909" height="3.297922554620909" fill="#222222" rx="2"></rect>
<rect x="85.555420523385" y="19.59696943096682" width="3.297922554620909" height="3.297922554620909" fill="#222222" rx="2"></rect>
<rect x="99.68937432890317" y="19.59696943096682" width="3.297922554620909" height="3.297922554620909" fill="#222222" rx="2"></rect>
<rect x="104.4006922640759" y="19.59696943096682" width="3.297922554620909" height="3.297922554620909" fill="#222222" rx="2"></rect>
<rect x="113.82332813442136" y="19.59696943096682" width="3.297922554620909" height="3.297922554620909" fill="#222222" rx="2"></rect>
<rect x="123.2459640047668" y="19.59696943096682" width="3.297922554620909" height="3.297922554620909" fill="#222222" rx="2"></rect>
<rect x="132.66859987511225" y="19.59696943096682" width="3.297922554620909" height="3.297922554620909" fill="#222222" rx="2"></rect>
<rect x="137.37991781028498" y="19.59696943096682" width="3.297922554620909" height="3.297922554620909" fill="#222222" rx="2"></rect>
<rect x="142.0912357454577" y="19.59696943096682" width="3.297922554620909" height="3.297922554620909" fill="#222222" rx="2"></rect>
<rect x="151.51387161580317" y="19.59696943096682" width="3.297922554620909" height="3.297922554620909" fill="#222222" rx="2"></rect>
<rect x="0.751697690275909" y="24.308287366139545" width="3.297922554620909" height="3.297922554620909" fill="#222222" rx="2"></rect>
<rect x="29.019605301312275" y="24.308287366139545" width="3.297922554620909" height="3.297922554620909" fill="#222222" rx="2"></rect>
<rect x="38.44224117165773" y="24.308287366139545" width="3.297922554620909" height="3.297922554620909" fill="#222222" rx="2"></rect>
<rect x="43.15355910683046" y="24.308287366139545" width="3.297922554620909" height="3.297922554620909" fill="#222222" rx="2"></rect>
<rect x="52.57619497717591" y="24.308287366139545" width="3.297922554620909" height="3.297922554620909" fill="#222222" rx="2"></rect>
<rect x="57.28751291234864" y="24.308287366139545" width="3.297922554620909" height="3.297922554620909" fill="#222222" rx="2"></rect>
<rect x="66.71014878269408" y="24.308287366139545" width="3.297922554620909" height="3.297922554620909" fill="#222222" rx="2"></rect>
<rect x="80.84410258821227" y="24.308287366139545" width="3.297922554620909" height="3.297922554620909" fill="#222222" rx="2"></rect>
<rect x="99.68937432890317" y="24.308287366139545" width="3.297922554620909" height="3.297922554620909" fill="#222222" rx="2"></rect>
<rect x="104.4006922640759" y="24.308287366139545" width="3.297922554620909" height="3.297922554620909" fill="#222222" rx="2"></rect>
<rect x="123.2459640047668" y="24.308287366139545" width="3.297922554620909" height="3.297922554620909" fill="#222222" rx="2"></rect>
<rect x="151.51387161580317" y="24.308287366139545" width="3.297922554620909" height="3.297922554620909" fill="#222222" rx="2"></rect>
<rect x="0.751697690275909" y="29.019605301312275" width="3.297922554620909" height="3.297922554620909" fill="#222222" rx="2"></rect>
<rect x="5.4630156254486355" y="29.019605301312275" width="3.297922554620909" height="3.297922554620909" fill="#222222" rx="2"></rect>
<rect x="10.174333560621363" y="29.019605301312275" width="3.297922554620909" height="3.297922554620909" fill="#222222" rx="2"></rect>
<rect x="14.885651495794091" y="29.019605301312275" width="3.297922554620909" height="3.297922554620909" fill="#222222" rx="2"></rect>
<rect x="19.59696943096682" y="29.019605301312275" width="3.297922554620909" height="3.297922554620909" fill="#222222" rx="2"></rect>
<rect x="24.308287366139545" y="29.019605301312275" width="3.297922554620909" height="3.297922554620909" fill="#222222" rx="2"></rect>
<rect x="29.019605301312275" y="29.019605301312275" width="3.297922554620909" height="3.297922554620909" fill="#222222" rx="2"></rect>
<rect x="38.44224117165773" y="29.019605301312275" width="3.297922554620909" height="3.297922554620909" fill="#222222" rx="2"></rect>
<rect x="47.86487704200318" y="29.019605301312275" width="3.297922554620909" height="3.297922554620909" fill="#222222" rx="2"></rect>
<rect x="57.28751291234864" y="29.019605301312275" width="3.297922554620909" height="3.297922554620909" fill="#222222" rx="2"></rect>
<rect x="66.71014878269408" y="29.019605301312275" width="3.297922554620909" height="3.297922554620909" fill="#222222" rx="2"></rect>
<rect x="76.13278465303954" y="29.019605301312275" width="3.297922554620909" height="3.297922554620909" fill="#222222" rx="2"></rect>
<rect x="85.555420523385" y="29.019605301312275" width="3.297922554620909" height="3.297922554620909" fill="#222222" rx="2"></rect>
<rect x="94.97805639373044" y="29.019605301312275" width="3.297922554620909" height="3.297922554620909" fill="#222222" rx="2"></rect>
<rect x="104.4006922640759" y="29.019605301312275" width="3.297922554620909" height="3.297922554620909" fill="#222222" rx="2"></rect>
<rect x="113.82332813442136" y="29.019605301312275" width="3.297922554620909" height="3.297922554620909" fill="#222222" rx="2"></rect>
<rect x="123.2459640047668" y="29.019605301312275" width="3.297922554620909" height="3.297922554620909" fill="#222222" rx="2"></rect>
<rect x="127.95728193993953" y="29.019605301312275" width="3.297922554620909" height="3.297922554620909" fill="#222222" rx="2"></rect>
<rect x="132.66859987511225" y="29.019605301312275" width="3.297922554620909" height="3.297922554620909" fill="#222222" rx="2"></rect>
<rect x="137.37991781028498" y="29.019605301312275" width="3.297922554620909" height="3.297922554620909" fill="#222222" rx="2"></rect>
<rect x="142.0912357454577" y="29.019605301312275" width="3.297922554620909" height="3.297922554620909" fill="#222222" rx="2"></rect>
<rect x="146.80255368063044" y="29.019605301312275" width="3.297922554620909" height="3.297922554620909" fill="#222222" rx="2"></rect>
<rect x="151.51387161580317" y="29.019605301312275" width="3.297922554620909" height="3.297922554620909" fill="#222222" rx="2"></rect>
<rect x="38.44224117165773" y="33.730923236485" width="3.297922554620909" height="3.297922554620909" fill="#222222" rx="2"></rect>
<rect x="43.15355910683046" y="33.730923236485" width="3.297922554620909" height="3.297922554620909" fill="#222222" rx="2"></rect>
<rect x="47.86487704200318" y="33.730923236485" width="3.297922554620909" height="3.297922554620909" fill="#222222" rx="2"></rect>
<rect x="52.57619497717591" y="33.730923236485" width="3.297922554620909" height="3.297922554620909" fill="#222222" rx="2"></rect>
<rect x="61.99883084752136" y="33.730923236485" width="3.297922554620909" height="3.297922554620909" fill="#222222" rx="2"></rect>
<rect x="76.13278465303954" y="33.730923236485" width="3.297922554620909" height="3.297922554620909" fill="#222222" rx="2"></rect>
<rect x="90.26673845855771" y="33.730923236485" width="3.297922554620909" height="3.297922554620909" fill="#222222" rx="2"></rect>
<rect x="94.97805639373044" y="33.730923236485" width="3.297922554620909" height="3.297922554620909" fill="#222222" rx="2"></rect>
<rect x="99.68937432890317" y="33.730923236485" width="3.297922554620909" height="3.297922554620909" fill="#222222" rx="2"></rect>
<rect x="104.4006922640759" y="33.730923236485" width="3.297922554620909" height="3.297922554620909" fill="#222222" rx="2"></rect>
<rect x="113.82332813442136" y="33.730923236485" width="3.297922554620909" height="3.297922554620909" fill="#222222" rx="2"></rect>
<rect x="10.174333560621363" y="38.44224117165773" width="3.297922554620909" height="3.297922554620909" fill="#222222" rx="2"></rect>
<rect x="14.885651495794091" y="38.44224117165773" width="3.297922554620909" height="3.297922554620909" fill="#222222" rx="2"></rect>
<rect x="19.59696943096682" y="38.44224117165773" width="3.297922554620909" height="3.297922554620909" fill="#222222" rx="2"></rect>
<rect x="29.019605301312275" y="38.44224117165773" width="3.297922554620909" height="3.297922554620909" fill="#222222" rx="2"></rect>
<rect x="38.44224117165773" y="38.44224117165773" width="3.297922554620909" height="3.297922554620909" fill="#222222" rx="2"></rect>
<rect x="43.15355910683046" y="38.44224117165773" width="3.297922554620909" height="3.297922554620909" fill="#222222" rx="2"></rect>
<rect x="47.86487704200318" y="38.44224117165773" width="3.297922554620909" height="3.297922554620909" fill="#222222" rx="2"></rect>
<rect x="52.57619497717591" y="38.44224117165773" width="3.297922554620909" height="3.297922554620909" fill="#222222" rx="2"></rect>
<rect x="57.28751291234864" y="38.44224117165773" width="3.297922554620909" height="3.297922554620909" fill="#222222" rx="2"></rect>
<rect x="61.99883084752136" y="38.44224117165773" width="3.297922554620909" height="3.297922554620909" fill="#222222" rx="2"></rect>
<rect x="66.71014878269408" y="38.44224117165773" width="3.297922554620909" height="3.297922554620909" fill="#222222" rx="2"></rect>
<rect x="71.4214667178668" y="38.44224117165773" width="3.297922554620909" height="3.297922554620909" fill="#222222" rx="2"></rect>
<rect x="80.84410258821227" y="38.44224117165773" width="3.297922554620909" height="3.297922554620909" fill="#222222" rx="2"></rect>
<rect x="85.555420523385" y="38.44224117165773" width="3.297922554620909" height="3.297922554620909" fill="#222222" rx="2"></rect>
<rect x="90.26673845855771" y="38.44224117165773" width="3.297922554620909" height="3.297922554620909" fill="#222222" rx="2"></rect>
<rect x="104.4006922640759" y="38.44224117165773" width="3.297922554620909" height="3.297922554620909" fill="#222222" rx="2"></rect>
<rect x="118.53464606959407" y="38.44224117165773" width="3.297922554620909" height="3.297922554620909" fill="#222222" rx="2"></rect>
<rect x="123.2459640047668" y="38.44224117165773" width="3.297922554620909" height="3.297922554620909" fill="#222222" rx="2"></rect>
<rect x="127.95728193993953" y="38.44224117165773" width="3.297922554620909" height="3.297922554620909" fill="#222222" rx="2"></rect>
<rect x="142.0912357454577" y="38.44224117165773" width="3.297922554620909" height="3.297922554620909" fill="#222222" rx="2"></rect>
<rect x="146.80255368063044" y="38.44224117165773" width="3.297922554620909" height="3.297922554620909" fill="#222222" rx="2"></rect>
<rect x="151.51387161580317" y="38.44224117165773" width="3.297922554620909" height="3.297922554620909" fill="#222222" rx="2"></rect>
<rect x="10.174333560621363" y="43.15355910683046" width="3.297922554620909" height="3.297922554620909" fill="#222222" rx="2"></rect>
<rect x="14.885651495794091" y="43.15355910683046" width="3.297922554620909" height="3.297922554620909" fill="#222222" rx="2"></rect>
<rect x="19.59696943096682" y="43.15355910683046" width="3.297922554620909" height="3.297922554620909" fill="#222222" rx="2"></rect>
<rect x="24.308287366139545" y="43.15355910683046" width="3.297922554620909" height="3.297922554620909" fill="#222222" rx="2"></rect>
<rect x="52.57619497717591" y="43.15355910683046" width="3.297922554620909" height="3.297922554620909" fill="#222222" rx="2"></rect>
<rect x="61.99883084752136" y="43.15355910683046" width="3.297922554620909" height="3.297922554620909" fill="#222222" rx="2"></rect>
<rect x="76.13278465303954" y="43.15355910683046" width="3.297922554620909" height="3.297922554620909" fill="#222222" rx="2"></rect>
<rect x="90.26673845855771" y="43.15355910683046" width="3.297922554620909" height="3.297922554620909" fill="#222222" rx="2"></rect>
<rect x="94.97805639373044" y="43.15355910683046" width="3.297922554620909" height="3.297922554620909" fill="#222222" rx="2"></rect>
<rect x="109.11201019924863" y="43.15355910683046" width="3.297922554620909" height="3.297922554620909" fill="#222222" rx="2"></rect>
<rect x="113.82332813442136" y="43.15355910683046" width="3.297922554620909" height="3.297922554620909" fill="#222222" rx="2"></rect>
<rect x="118.53464606959407" y="43.15355910683046" width="3.297922554620909" height="3.297922554620909" fill="#222222" rx="2"></rect>
<rect x="123.2459640047668" y="43.15355910683046" width="3.297922554620909" height="3.297922554620909" fill="#222222" rx="2"></rect>
<rect x="137.37991781028498" y="43.15355910683046" width="3.297922554620909" height="3.297922554620909" fill="#222222" rx="2"></rect>
<rect x="151.51387161580317" y="43.15355910683046" width="3.297922554620909" height="3.297922554620909" fill="#222222" rx="2"></rect>
<rect x="0.751697690275909" y="47.86487704200318" width="3.297922554620909" height="3.297922554620909" fill="#222222" rx="2"></rect>
<rect x="14.885651495794091" y="47.86487704200318" width="3.297922554620909" height="3.297922554620909" fill="#222222" rx="2"></rect>
<rect x="19.59696943096682" y="47.86487704200318" width="3.297922554620909" height="3.297922554620909" fill="#222222" rx="2"></rect>
<rect x="24.308287366139545" y="47.86487704200318" width="3.297922554620909" height="3.297922554620909" fill="#222222" rx="2"></rect>
<rect x="29.019605301312275" y="47.86487704200318" width="3.297922554620909" height="3.297922554620909" fill="#222222" rx="2"></rect>
<rect x="33.730923236485" y="47.86487704200318" width="3.297922554620909" height="3.297922554620909" fill="#222222" rx="2"></rect>
<rect x="38.44224117165773" y="47.86487704200318" width="3.297922554620909" height="3.297922554620909" fill="#222222" rx="2"></rect>
<rect x="47.86487704200318" y="47.86487704200318" width="3.297922554620909" height="3.297922554620909" fill="#222222" rx="2"></rect>
<rect x="66.71014878269408" y="47.86487704200318" width="3.297922554620909" height="3.297922554620909" fill="#222222" rx="2"></rect>
<rect x="85.555420523385" y="47.86487704200318" width="3.297922554620909" height="3.297922554620909" fill="#222222" rx="2"></rect>
<rect x="90.26673845855771" y="47.86487704200318" width="3.297922554620909" height="3.297922554620909" fill="#222222" rx="2"></rect>
<rect x="104.4006922640759" y="47.86487704200318" width="3.297922554620909" height="3.297922554620909" fill="#222222" rx="2"></rect>
<rect x="113.82332813442136" y="47.86487704200318" width="3.297922554620909" height="3.297922554620909" fill="#222222" rx="2"></rect>
<rect x="118.53464606959407" y="47.86487704200318" width="3.297922554620909" height="3.297922554620909" fill="#222222" rx="2"></rect>
<rect x="123.2459640047668" y="47.86487704200318" width="3.297922554620909" height="3.297922554620909" fill="#222222" rx="2"></rect>
<rect x="127.95728193993953" y="47.86487704200318" width="3.297922554620909" height="3.297922554620909" fill="#222222" rx="2"></rect>
<rect x="137.37991781028498" y="47.86487704200318" width="3.297922554620909" height="3.297922554620909" fill="#222222" rx="2"></rect>
<rect x="146.80255368063044" y="47.86487704200318" width="3.297922554620909" height="3.297922554620909" fill="#222222" rx="2"></rect>
<rect x="14.885651495794091" y="52.57619497717591" width="3.297922554620909" height="3.297922554620909" fill="#222222" rx="2"></rect>
<rect x="19.59696943096682" y="52.57619497717591" width="3.297922554620909" height="3.297922554620909" fill="#222222" rx="2"></rect>
<rect x="24.308287366139545" y="52.57619497717591" width="3.297922554620909" height="3.297922554620909" fill="#222222" rx="2"></rect>
<rect x="33.730923236485" y="52.57619497717591" width="3.297922554620909" height="3.297922554620909" fill="#222222" rx="2"></rect>
<rect x="47.86487704200318" y="52.57619497717591" width="3.297922554620909" height="3.297922554620909" fill="#222222" rx="2"></rect>
<rect x="52.57619497717591" y="52.57619497717591" width="3.297922554620909" height="3.297922554620909" fill="#222222" rx="2"></rect>
<rect x="57.28751291234864" y="52.57619497717591" width="3.297922554620909" height="3.297922554620909" fill="#222222" rx="2"></rect>
<rect x="66.71014878269408" y="52.57619497717591" width="3.297922554620909" height="3.297922554620909" fill="#222222" rx="2"></rect>
<rect x="94.97805639373044" y="52.57619497717591" width="3.297922554620909" height="3.297922554620909" fill="#222222" rx="2"></rect>
<rect x="123.2459640047668" y="52.57619497717591" width="3.297922554620909" height="3.297922554620909" fill="#222222" rx="2"></rect>
<rect x="142.0912357454577" y="52.57619497717591" width="3.297922554620909" height="3.297922554620909" fill="#222222" rx="2"></rect>
<rect x="146.80255368063044" y="52.57619497717591" width="3.297922554620909" height="3.297922554620909" fill="#222222" rx="2"></rect>
<rect x="151.51387161580317" y="52.57619497717591" width="3.297922554620909" height="3.297922554620909" fill="#222222" rx="2"></rect>
<rect x="0.751697690275909" y="57.28751291234864" width="3.297922554620909" height="3.297922554620909" fill="#222222" rx="2"></rect>
<rect x="5.4630156254486355" y="57.28751291234864" width="3.297922554620909" height="3.297922554620909" fill="#222222" rx="2"></rect>
<rect x="19.59696943096682" y="57.28751291234864" width="3.297922554620909" height="3.297922554620909" fill="#222222" rx="2"></rect>
<rect x="24.308287366139545" y="57.28751291234864" width="3.297922554620909" height="3.297922554620909" fill="#222222" rx="2"></rect>
<rect x="29.019605301312275" y="57.28751291234864" width="3.297922554620909" height="3.297922554620909" fill="#222222" rx="2"></rect>
<rect x="33.730923236485" y="57.28751291234864" width="3.297922554620909" height="3.297922554620909" fill="#222222" rx="2"></rect>
<rect x="47.86487704200318" y="57.28751291234864" width="3.297922554620909" height="3.297922554620909" fill="#222222" rx="2"></rect>
<rect x="61.99883084752136" y="57.28751291234864" width="3.297922554620909" height="3.297922554620909" fill="#222222" rx="2"></rect>
<rect x="71.4214667178668" y="57.28751291234864" width="3.297922554620909" height="3.297922554620909" fill="#222222" rx="2"></rect>
<rect x="80.84410258821227" y="57.28751291234864" width="3.297922554620909" height="3.297922554620909" fill="#222222" rx="2"></rect>
<rect x="90.26673845855771" y="57.28751291234864" width="3.297922554620909" height="3.297922554620909" fill="#222222" rx="2"></rect>
<rect x="99.68937432890317" y="57.28751291234864" width="3.297922554620909" height="3.297922554620909" fill="#222222" rx="2"></rect>
<rect x="104.4006922640759" y="57.28751291234864" width="3.297922554620909" height="3.297922554620909" fill="#222222" rx="2"></rect>
<rect x="113.82332813442136" y="57.28751291234864" width="3.297922554620909" height="3.297922554620909" fill="#222222" rx="2"></rect>
<rect x="118.53464606959407" y="57.28751291234864" width="3.297922554620909" height="3.297922554620909" fill="#222222" rx="2"></rect>
<rect x="127.95728193993953" y="57.28751291234864" width="3.297922554620909" height="3.297922554620909" fill="#222222" rx="2"></rect>
<rect x="137.37991781028498" y="57.28751291234864" width="3.297922554620909" height="3.297922554620909" fill="#222222" rx="2"></rect>
<rect x="5.4630156254486355" y="61.99883084752136" width="3.297922554620909" height="3.297922554620909" fill="#222222" rx="2"></rect>
<rect x="10.174333560621363" y="61.99883084752136" width="3.297922554620909" height="3.297922554620909" fill="#222222" rx="2"></rect>
<rect x="19.59696943096682" y="61.99883084752136" width="3.297922554620909" height="3.297922554620909" fill="#222222" rx="2"></rect>
<rect x="24.308287366139545" y="61.99883084752136" width="3.297922554620909" height="3.297922554620909" fill="#222222" rx="2"></rect>
<rect x="43.15355910683046" y="61.99883084752136" width="3.297922554620909" height="3.297922554620909" fill="#222222" rx="2"></rect>
<rect x="57.28751291234864" y="61.99883084752136" width="3.297922554620909" height="3.297922554620909" fill="#222222" rx="2"></rect>
<rect x="66.71014878269408" y="61.99883084752136" width="3.297922554620909" height="3.297922554620909" fill="#222222" rx="2"></rect>
<rect x="71.4214667178668" y="61.99883084752136" width="3.297922554620909" height="3.297922554620909" fill="#222222" rx="2"></rect>
<rect x="80.84410258821227" y="61.99883084752136" width="3.297922554620909" height="3.297922554620909" fill="#222222" rx="2"></rect>
<rect x="85.555420523385" y="61.99883084752136" width="3.297922554620909" height="3.297922554620909" fill="#222222" rx="2"></rect>
<rect x="90.26673845855771" y="61.99883084752136" width="3.297922554620909" height="3.297922554620909" fill="#222222" rx="2"></rect>
<rect x="109.11201019924863" y="61.99883084752136" width="3.297922554620909" height="3.297922554620909" fill="#222222" rx="2"></rect>
<rect x="113.82332813442136" y="61.99883084752136" width="3.297922554620909" height="3.297922554620909" fill="#222222" rx="2"></rect>
<rect x="123.2459640047668" y="61.99883084752136" width="3.297922554620909" height="3.297922554620909" fill="#222222" rx="2"></rect>
<rect x="132.66859987511225" y="61.99883084752136" width="3.297922554620909" height="3.297922554620909" fill="#222222" rx="2"></rect>
<rect x="137.37991781028498" y="61.99883084752136" width="3.297922554620909" height="3.297922554620909" fill="#222222" rx="2"></rect>
<rect x="151.51387161580317" y="61.99883084752136" width="3.297922554620909" height="3.297922554620909" fill="#222222" rx="2"></rect>
<rect x="19.59696943096682" y="66.71014878269408" width="3.297922554620909" height="3.297922554620909" fill="#222222" rx="2"></rect>
<rect x="29.019605301312275" y="66.71014878269408" width="3.297922554620909" height="3.297922554620909" fill="#222222" rx="2"></rect>
<rect x="38.44224117165773" y="66.71014878269408" width="3.297922554620909" height="3.297922554620909" fill="#222222" rx="2"></rect>
<rect x="43.15355910683046" y="66.71014878269408" width="3.297922554620909" height="3.297922554620909" fill="#222222" rx="2"></rect>
<rect x="57.28751291234864" y="66.71014878269408" width="3.297922554620909" height="3.297922554620909" fill="#222222" rx="2"></rect>
<rect x="61.99883084752136" y="66.71014878269408" width="3.297922554620909" height="3.297922554620909" fill="#222222" rx="2"></rect>
<rect x="66.71014878269408" y="66.71014878269408" width="3.297922554620909" height="3.297922554620909" fill="#222222" rx="2"></rect>
<rect x="71.4214667178668" y="66.71014878269408" width="3.297922554620909" height="3.297922554620909" fill="#222222" rx="2"></rect>
<rect x="76.13278465303954" y="66.71014878269408" width="3.297922554620909" height="3.297922554620909" fill="#222222" rx="2"></rect>
<rect x="94.97805639373044" y="66.71014878269408" width="3.297922554620909" height="3.297922554620909" fill="#222222" rx="2"></rect>
<rect x="104.4006922640759" y="66.71014878269408" width="3.297922554620909" height="3.297922554620909" fill="#222222" rx="2"></rect>
<rect x="127.95728193993953" y="66.71014878269408" width="3.297922554620909" height="3.297922554620909" fill="#222222" rx="2"></rect>
<rect x="132.66859987511225" y="66.71014878269408" width="3.297922554620909" height="3.297922554620909" fill="#222222" rx="2"></rect>
<rect x="146.80255368063044" y="66.71014878269408" width="3.297922554620909" height="3.297922554620909" fill="#222222" rx="2"></rect>
<rect x="5.4630156254486355" y="71.4214667178668" width="3.297922554620909" height="3.297922554620909" fill="#222222" rx="2"></rect>
<rect x="10.174333560621363" y="71.4214667178668" width="3.297922554620909" height="3.297922554620909" fill="#222222" rx="2"></rect>
<rect x="14.885651495794091" y="71.4214667178668" width="3.297922554620909" height="3.297922554620909" fill="#222222" rx="2"></rect>
<rect x="19.59696943096682" y="71.4214667178668" width="3.297922554620909" height="3.297922554620909" fill="#222222" rx="2"></rect>
<rect x="33.730923236485" y="71.4214667178668" width="3.297922554620909" height="3.297922554620909" fill="#222222" rx="2"></rect>
<rect x="43.15355910683046" y="71.4214667178668" width="3.297922554620909" height="3.297922554620909" fill="#222222" rx="2"></rect>
<rect x="47.86487704200318" y="71.4214667178668" width="3.297922554620909" height="3.297922554620909" fill="#222222" rx="2"></rect>
<rect x="52.57619497717591" y="71.4214667178668" width="3.297922554620909" height="3.297922554620909" fill="#222222" rx="2"></rect>
<rect x="61.99883084752136" y="71.4214667178668" width="3.297922554620909" height="3.297922554620909" fill="#222222" rx="2"></rect>
<rect x="66.71014878269408" y="71.4214667178668" width="3.297922554620909" height="3.297922554620909" fill="#222222" rx="2"></rect>
<rect x="76.13278465303954" y="71.4214667178668" width="3.297922554620909" height="3.297922554620909" fill="#222222" rx="2"></rect>
<rect x="85.555420523385" y="71.4214667178668" width="3.297922554620909" height="3.297922554620909" fill="#222222" rx="2"></rect>
<rect x="90.26673845855771" y="71.4214667178668" width="3.297922554620909" height="3.297922554620909" fill="#222222" rx="2"></rect>
<rect x="99.68937432890317" y="71.4214667178668" width="3.297922554620909" height="3.297922554620909" fill="#222222" rx="2"></rect>
<rect x="104.4006922640759" y="71.4214667178668" width="3.297922554620909" height="3.297922554620909" fill="#222222" rx="2"></rect>
<rect x="109.11201019924863" y="71.4214667178668" width="3.297922554620909" height="3.297922554620909" fill="#222222" rx="2"></rect>
<rect x="118.53464606959407" y="71.4214667178668" width="3.297922554620909" height="3.297922554620909" fill="#222222" rx="2"></rect>
<rect x="132.66859987511225" y="71.4214667178668" width="3.297922554620909" height="3.297922554620909" fill="#222222" rx="2"></rect>
<rect x="137.37991781028498" y="71.4214667178668" width="3.297922554620909" height="3.297922554620909" fill="#222222" rx="2"></rect>
<rect x="151.51387161580317" y="71.4214667178668" width="3.297922554620909" height="3.297922554620909" fill="#222222" rx="2"></rect>
<rect x="0.751697690275909" y="76.13278465303954" width="3.297922554620909" height="3.297922554620909" fill="#222222" rx="2"></rect>
<rect x="29.019605301312275" y="76.13278465303954" width="3.297922554620909" height="3.297922554620909" fill="#222222" rx="2"></rect>
<rect x="38.44224117165773" y="76.13278465303954" width="3.297922554620909" height="3.297922554620909" fill="#222222" rx="2"></rect>
<rect x="43.15355910683046" y="76.13278465303954" width="3.297922554620909" height="3.297922554620909" fill="#222222" rx="2"></rect>
<rect x="57.28751291234864" y="76.13278465303954" width="3.297922554620909" height="3.297922554620909" fill="#222222" rx="2"></rect>
<rect x="61.99883084752136" y="76.13278465303954" width="3.297922554620909" height="3.297922554620909" fill="#222222" rx="2"></rect>
<rect x="66.71014878269408" y="76.13278465303954" width="3.297922554620909" height="3.297922554620909" fill="#222222" rx="2"></rect>
<rect x="76.13278465303954" y="76.13278465303954" width="3.297922554620909" height="3.297922554620909" fill="#222222" rx="2"></rect>
<rect x="80.84410258821227" y="76.13278465303954" width="3.297922554620909" height="3.297922554620909" fill="#222222" rx="2"></rect>
<rect x="85.555420523385" y="76.13278465303954" width="3.297922554620909" height="3.297922554620909" fill="#222222" rx="2"></rect>
<rect x="90.26673845855771" y="76.13278465303954" width="3.297922554620909" height="3.297922554620909" fill="#222222" rx="2"></rect>
<rect x="109.11201019924863" y="76.13278465303954" width="3.297922554620909" height="3.297922554620909" fill="#222222" rx="2"></rect>
<rect x="118.53464606959407" y="76.13278465303954" width="3.297922554620909" height="3.297922554620909" fill="#222222" rx="2"></rect>
<rect x="132.66859987511225" y="76.13278465303954" width="3.297922554620909" height="3.297922554620909" fill="#222222" rx="2"></rect>
<rect x="142.0912357454577" y="76.13278465303954" width="3.297922554620909" height="3.297922554620909" fill="#222222" rx="2"></rect>
<rect x="151.51387161580317" y="76.13278465303954" width="3.297922554620909" height="3.297922554620909" fill="#222222" rx="2"></rect>
<rect x="0.751697690275909" y="80.84410258821227" width="3.297922554620909" height="3.297922554620909" fill="#222222" rx="2"></rect>
<rect x="5.4630156254486355" y="80.84410258821227" width="3.297922554620909" height="3.297922554620909" fill="#222222" rx="2"></rect>
<rect x="14.885651495794091" y="80.84410258821227" width="3.297922554620909" height="3.297922554620909" fill="#222222" rx="2"></rect>
<rect x="19.59696943096682" y="80.84410258821227" width="3.297922554620909" height="3.297922554620909" fill="#222222" rx="2"></rect>
<rect x="24.308287366139545" y="80.84410258821227" width="3.297922554620909" height="3.297922554620909" fill="#222222" rx="2"></rect>
<rect x="33.730923236485" y="80.84410258821227" width="3.297922554620909" height="3.297922554620909" fill="#222222" rx="2"></rect>
<rect x="38.44224117165773" y="80.84410258821227" width="3.297922554620909" height="3.297922554620909" fill="#222222" rx="2"></rect>
<rect x="47.86487704200318" y="80.84410258821227" width="3.297922554620909" height="3.297922554620909" fill="#222222" rx="2"></rect>
<rect x="57.28751291234864" y="80.84410258821227" width="3.297922554620909" height="3.297922554620909" fill="#222222" rx="2"></rect>
<rect x="61.99883084752136" y="80.84410258821227" width="3.297922554620909" height="3.297922554620909" fill="#222222" rx="2"></rect>
<rect x="76.13278465303954" y="80.84410258821227" width="3.297922554620909" height="3.297922554620909" fill="#222222" rx="2"></rect>
<rect x="90.26673845855771" y="80.84410258821227" width="3.297922554620909" height="3.297922554620909" fill="#222222" rx="2"></rect>
<rect x="94.97805639373044" y="80.84410258821227" width="3.297922554620909" height="3.297922554620909" fill="#222222" rx="2"></rect>
<rect x="99.68937432890317" y="80.84410258821227" width="3.297922554620909" height="3.297922554620909" fill="#222222" rx="2"></rect>
<rect x="109.11201019924863" y="80.84410258821227" width="3.297922554620909" height="3.297922554620909" fill="#222222" rx="2"></rect>
<rect x="113.82332813442136" y="80.84410258821227" width="3.297922554620909" height="3.297922554620909" fill="#222222" rx="2"></rect>
<rect x="123.2459640047668" y="80.84410258821227" width="3.297922554620909" height="3.297922554620909" fill="#222222" rx="2"></rect>
<rect x="127.95728193993953" y="80.84410258821227" width="3.297922554620909" height="3.297922554620909" fill="#222222" rx="2"></rect>
<rect x="0.751697690275909" y="85.555420523385" width="3.297922554620909" height="3.297922554620909" fill="#222222" rx="2"></rect>
<rect x="5.4630156254486355" y="85.555420523385" width="3.297922554620909" height="3.297922554620909" fill="#222222" rx="2"></rect>
<rect x="19.59696943096682" y="85.555420523385" width="3.297922554620909" height="3.297922554620909" fill="#222222" rx="2"></rect>
<rect x="29.019605301312275" y="85.555420523385" width="3.297922554620909" height="3.297922554620909" fill="#222222" rx="2"></rect>
<rect x="43.15355910683046" y="85.555420523385" width="3.297922554620909" height="3.297922554620909" fill="#222222" rx="2"></rect>
<rect x="47.86487704200318" y="85.555420523385" width="3.297922554620909" height="3.297922554620909" fill="#222222" rx="2"></rect>
<rect x="52.57619497717591" y="85.555420523385" width="3.297922554620909" height="3.297922554620909" fill="#222222" rx="2"></rect>
<rect x="66.71014878269408" y="85.555420523385" width="3.297922554620909" height="3.297922554620909" fill="#222222" rx="2"></rect>
<rect x="90.26673845855771" y="85.555420523385" width="3.297922554620909" height="3.297922554620909" fill="#222222" rx="2"></rect>
<rect x="99.68937432890317" y="85.555420523385" width="3.297922554620909" height="3.297922554620909" fill="#222222" rx="2"></rect>
<rect x="104.4006922640759" y="85.555420523385" width="3.297922554620909" height="3.297922554620909" fill="#222222" rx="2"></rect>
<rect x="132.66859987511225" y="85.555420523385" width="3.297922554620909" height="3.297922554620909" fill="#222222" rx="2"></rect>
<rect x="142.0912357454577" y="85.555420523385" width="3.297922554620909" height="3.297922554620909" fill="#222222" rx="2"></rect>
<rect x="5.4630156254486355" y="90.26673845855771" width="3.297922554620909" height="3.297922554620909" fill="#222222" rx="2"></rect>
<rect x="19.59696943096682" y="90.26673845855771" width="3.297922554620909" height="3.297922554620909" fill="#222222" rx="2"></rect>
<rect x="38.44224117165773" y="90.26673845855771" width="3.297922554620909" height="3.297922554620909" fill="#222222" rx="2"></rect>
<rect x="57.28751291234864" y="90.26673845855771" width="3.297922554620909" height="3.297922554620909" fill="#222222" rx="2"></rect>
<rect x="66.71014878269408" y="90.26673845855771" width="3.297922554620909" height="3.297922554620909" fill="#222222" rx="2"></rect>
<rect x="71.4214667178668" y="90.26673845855771" width="3.297922554620909" height="3.297922554620909" fill="#222222" rx="2"></rect>
<rect x="76.13278465303954" y="90.26673845855771" width="3.297922554620909" height="3.297922554620909" fill="#222222" rx="2"></rect>
<rect x="80.84410258821227" y="90.26673845855771" width="3.297922554620909" height="3.297922554620909" fill="#222222" rx="2"></rect>
<rect x="94.97805639373044" y="90.26673845855771" width="3.297922554620909" height="3.297922554620909" fill="#222222" rx="2"></rect>
<rect x="99.68937432890317" y="90.26673845855771" width="3.297922554620909" height="3.297922554620909" fill="#222222" rx="2"></rect>
<rect x="109.11201019924863" y="90.26673845855771" width="3.297922554620909" height="3.297922554620909" fill="#222222" rx="2"></rect>
<rect x="113.82332813442136" y="90.26673845855771" width="3.297922554620909" height="3.297922554620909" fill="#222222" rx="2"></rect>
<rect x="118.53464606959407" y="90.26673845855771" width="3.297922554620909" height="3.297922554620909" fill="#222222" rx="2"></rect>
<rect x="137.37991781028498" y="90.26673845855771" width="3.297922554620909" height="3.297922554620909" fill="#222222" rx="2"></rect>
<rect x="142.0912357454577" y="90.26673845855771" width="3.297922554620909" height="3.297922554620909" fill="#222222" rx="2"></rect>
<rect x="146.80255368063044" y="90.26673845855771" width="3.297922554620909" height="3.297922554620909" fill="#222222" rx="2"></rect>
<rect x="0.751697690275909" y="94.97805639373044" width="3.297922554620909" height="3.297922554620909" fill="#222222" rx="2"></rect>
<rect x="10.174333560621363" y="94.97805639373044" width="3.297922554620909" height="3.297922554620909" fill="#222222" rx="2"></rect>
<rect x="29.019605301312275" y="94.97805639373044" width="3.297922554620909" height="3.297922554620909" fill="#222222" rx="2"></rect>
<rect x="38.44224117165773" y="94.97805639373044" width="3.297922554620909" height="3.297922554620909" fill="#222222" rx="2"></rect>
<rect x="52.57619497717591" y="94.97805639373044" width="3.297922554620909" height="3.297922554620909" fill="#222222" rx="2"></rect>
<rect x="57.28751291234864" y="94.97805639373044" width="3.297922554620909" height="3.297922554620909" fill="#222222" rx="2"></rect>
<rect x="80.84410258821227" y="94.97805639373044" width="3.297922554620909" height="3.297922554620909" fill="#222222" rx="2"></rect>
<rect x="94.97805639373044" y="94.97805639373044" width="3.297922554620909" height="3.297922554620909" fill="#222222" rx="2"></rect>
<rect x="104.4006922640759" y="94.97805639373044" width="3.297922554620909" height="3.297922554620909" fill="#222222" rx="2"></rect>
<rect x="113.82332813442136" y="94.97805639373044" width="3.297922554620909" height="3.297922554620909" fill="#222222" rx="2"></rect>
<rect x="127.95728193993953" y="94.97805639373044" width="3.297922554620909" height="3.297922554620909" fill="#222222" rx="2"></rect>
<rect x="132.66859987511225" y="94.97805639373044" width="3.297922554620909" height="3.297922554620909" fill="#222222" rx="2"></rect>
<rect x="137.37991781028498" y="94.97805639373044" width="3.297922554620909" height="3.297922554620909" fill="#222222" rx="2"></rect>
<rect x="0.751697690275909" y="99.68937432890317" width="3.297922554620909" height="3.297922554620909" fill="#222222" rx="2"></rect>
<rect x="33.730923236485" y="99.68937432890317" width="3.297922554620909" height="3.297922554620909" fill="#222222" rx="2"></rect>
<rect x="38.44224117165773" y="99.68937432890317" width="3.297922554620909" height="3.297922554620909" fill="#222222" rx="2"></rect>
<rect x="43.15355910683046" y="99.68937432890317" width="3.297922554620909" height="3.297922554620909" fill="#222222" rx="2"></rect>
<rect x="47.86487704200318" y="99.68937432890317" width="3.297922554620909" height="3.297922554620909" fill="#222222" rx="2"></rect>
<rect x="52.57619497717591" y="99.68937432890317" width="3.297922554620909" height="3.297922554620909" fill="#222222" rx="2"></rect>
<rect x="57.28751291234864" y="99.68937432890317" width="3.297922554620909" height="3.297922554620909" fill="#222222" rx="2"></rect>
<rect x="71.4214667178668" y="99.68937432890317" width="3.297922554620909" height="3.297922554620909" fill="#222222" rx="2"></rect>
<rect x="76.13278465303954" y="99.68937432890317" width="3.297922554620909" height="3.297922554620909" fill="#222222" rx="2"></rect>
<rect x="85.555420523385" y="99.68937432890317" width="3.297922554620909" height="3.297922554620909" fill="#222222" rx="2"></rect>
<rect x="90.26673845855771" y="99.68937432890317" width="3.297922554620909" height="3.297922554620909" fill="#222222" rx="2"></rect>
<rect x="99.68937432890317" y="99.68937432890317" width="3.297922554620909" height="3.297922554620909" fill="#222222" rx="2"></rect>
<rect x="118.53464606959407" y="99.68937432890317" width="3.297922554620909" height="3.297922554620909" fill="#222222" rx="2"></rect>
<rect x="142.0912357454577" y="99.68937432890317" width="3.297922554620909" height="3.297922554620909" fill="#222222" rx="2"></rect>
<rect x="151.51387161580317" y="99.68937432890317" width="3.297922554620909" height="3.297922554620909" fill="#222222" rx="2"></rect>
<rect x="0.751697690275909" y="104.4006922640759" width="3.297922554620909" height="3.297922554620909" fill="#222222" rx="2"></rect>
<rect x="10.174333560621363" y="104.4006922640759" width="3.297922554620909" height="3.297922554620909" fill="#222222" rx="2"></rect>
<rect x="19.59696943096682" y="104.4006922640759" width="3.297922554620909" height="3.297922554620909" fill="#222222" rx="2"></rect>
<rect x="29.019605301312275" y="104.4006922640759" width="3.297922554620909" height="3.297922554620909" fill="#222222" rx="2"></rect>
<rect x="38.44224117165773" y="104.4006922640759" width="3.297922554620909" height="3.297922554620909" fill="#222222" rx="2"></rect>
<rect x="43.15355910683046" y="104.4006922640759" width="3.297922554620909" height="3.297922554620909" fill="#222222" rx="2"></rect>
<rect x="47.86487704200318" y="104.4006922640759" width="3.297922554620909" height="3.297922554620909" fill="#222222" rx="2"></rect>
<rect x="57.28751291234864" y="104.4006922640759" width="3.297922554620909" height="3.297922554620909" fill="#222222" rx="2"></rect>
<rect x="85.555420523385" y="104.4006922640759" width="3.297922554620909" height="3.297922554620909" fill="#222222" rx="2"></rect>
<rect x="109.11201019924863" y="104.4006922640759" width="3.297922554620909" height="3.297922554620909" fill="#222222" rx="2"></rect>
<rect x="113.82332813442136" y="104.4006922640759" width="3.297922554620909" height="3.297922554620909" fill="#222222" rx="2"></rect>
<rect x="137.37991781028498" y="104.4006922640759" width="3.297922554620909" height="3.297922554620909" fill="#222222" rx="2"></rect>
<rect x="0.751697690275909" y="109.11201019924863" width="3.297922554620909" height="3.297922554620909" fill="#222222" rx="2"></rect>
<rect x="14.885651495794091" y="109.11201019924863" width="3.297922554620909" height="3.297922554620909" fill="#222222" rx="2"></rect>
<rect x="19.59696943096682" y="109.11201019924863" width="3.297922554620909" height="3.297922554620909" fill="#222222" rx="2"></rect>
<rect x="33.730923236485" y="109.11201019924863" width="3.297922554620909" height="3.297922554620909" fill="#222222" rx="2"></rect>
<rect x="43.15355910683046" y="109.11201019924863" width="3.297922554620909" height="3.297922554620909" fill="#222222" rx="2"></rect>
<rect x="47.86487704200318" y="109.11201019924863" width="3.297922554620909" height="3.297922554620909" fill="#222222" rx="2"></rect>
<rect x="57.28751291234864" y="109.11201019924863" width="3.297922554620909" height="3.297922554620909" fill="#222222" rx="2"></rect>
<rect x="61.99883084752136" y="109.11201019924863" width="3.297922554620909" height="3.297922554620909" fill="#222222" rx="2"></rect>
<rect x="71.4214667178668" y="109.11201019924863" width="3.297922554620909" height="3.297922554620909" fill="#222222" rx="2"></rect>
<rect x="99.68937432890317" y="109.11201019924863" width="3.297922554620909" height="3.297922554620909" fill="#222222" rx="2"></rect>
<rect x="109.11201019924863" y="109.11201019924863" width="3.297922554620909" height="3.297922554620909" fill="#222222" rx="2"></rect>
<rect x="127.95728193993953" y="109.11201019924863" width="3.297922554620909" height="3.297922554620909" fill="#222222" rx="2"></rect>
<rect x="137.37991781028498" y="109.11201019924863" width="3.297922554620909" height="3.297922554620909" fill="#222222" rx="2"></rect>
<rect x="142.0912357454577" y="109.11201019924863" width="3.297922554620909" height="3.297922554620909" fill="#222222" rx="2"></rect>
<rect x="146.80255368063044" y="109.11201019924863" width="3.297922554620909" height="3.297922554620909" fill="#222222" rx="2"></rect>
<rect x="151.51387161580317" y="109.11201019924863" width="3.297922554620909" height="3.297922554620909" fill="#222222" rx="2"></rect>
<rect x="0.751697690275909" y="113.82332813442136" width="3.297922554620909" height="3.297922554620909" fill="#222222" rx="2"></rect>
<rect x="10.174333560621363" y="113.82332813442136" width="3.297922554620909" height="3.297922554620909" fill="#222222" rx="2"></rect>
<rect x="19.59696943096682" y="113.82332813442136" width="3.297922554620909" height="3.297922554620909" fill="#222222" rx="2"></rect>
<rect x="24.308287366139545" y="113.82332813442136" width="3.297922554620909" height="3.297922554620909" fill="#222222" rx="2"></rect>
<rect x="29.019605301312275" y="113.82332813442136" width="3.297922554620909" height="3.297922554620909" fill="#222222" rx="2"></rect>
<rect x="38.44224117165773" y="113.82332813442136" width="3.297922554620909" height="3.297922554620909" fill="#222222" rx="2"></rect>
<rect x="52.57619497717591" y="113.82332813442136" width="3.297922554620909" height="3.297922554620909" fill="#222222" rx="2"></rect>
<rect x="76.13278465303954" y="113.82332813442136" width="3.297922554620909" height="3.297922554620909" fill="#222222" rx="2"></rect>
<rect x="80.84410258821227" y="113.82332813442136" width="3.297922554620909" height="3.297922554620909" fill="#222222" rx="2"></rect>
<rect x="104.4006922640759" y="113.82332813442136" width="3.297922554620909" height="3.297922554620909" fill="#222222" rx="2"></rect>
<rect x="109.11201019924863" y="113.82332813442136" width="3.297922554620909" height="3.297922554620909" fill="#222222" rx="2"></rect>
<rect x="113.82332813442136" y="113.82332813442136" width="3.297922554620909" height="3.297922554620909" fill="#222222" rx="2"></rect>
<rect x="118.53464606959407" y="113.82332813442136" width="3.297922554620909" height="3.297922554620909" fill="#222222" rx="2"></rect>
<rect x="123.2459640047668" y="113.82332813442136" width="3.297922554620909" height="3.297922554620909" fill="#222222" rx="2"></rect>
<rect x="127.95728193993953" y="113.82332813442136" width="3.297922554620909" height="3.297922554620909" fill="#222222" rx="2"></rect>
<rect x="132.66859987511225" y="113.82332813442136" width="3.297922554620909" height="3.297922554620909" fill="#222222" rx="2"></rect>
<rect x="146.80255368063044" y="113.82332813442136" width="3.297922554620909" height="3.297922554620909" fill="#222222" rx="2"></rect>
<rect x="151.51387161580317" y="113.82332813442136" width="3.297922554620909" height="3.297922554620909" fill="#222222" rx="2"></rect>
<rect x="38.44224117165773" y="118.53464606959407" width="3.297922554620909" height="3.297922554620909" fill="#222222" rx="2"></rect>
<rect x="47.86487704200318" y="118.53464606959407" width="3.297922554620909" height="3.297922554620909" fill="#222222" rx="2"></rect>
<rect x="52.57619497717591" y="118.53464606959407" width="3.297922554620909" height="3.297922554620909" fill="#222222" rx="2"></rect>
<rect x="71.4214667178668" y="118.53464606959407" width="3.297922554620909" height="3.297922554620909" fill="#222222" rx="2"></rect>
<rect x="76.13278465303954" y="118.53464606959407" width="3.297922554620909" height="3.297922554620909" fill="#222222" rx="2"></rect>
<rect x="85.555420523385" y="118.53464606959407" width="3.297922554620909" height="3.297922554620909" fill="#222222" rx="2"></rect>
<rect x="94.97805639373044" y="118.53464606959407" width="3.297922554620909" height="3.297922554620909" fill="#222222" rx="2"></rect>
<rect x="99.68937432890317" y="118.53464606959407" width="3.297922554620909" height="3.297922554620909" fill="#222222" rx="2"></rect>
<rect x="113.82332813442136" y="118.53464606959407" width="3.297922554620909" height="3.297922554620909" fill="#222222" rx="2"></rect>
<rect x="132.66859987511225" y="118.53464606959407" width="3.297922554620909" height="3.297922554620909" fill="#222222" rx="2"></rect>
<rect x="142.0912357454577" y="118.53464606959407" width="3.297922554620909" height="3.297922554620909" fill="#222222" rx="2"></rect>
<rect x="146.80255368063044" y="118.53464606959407" width="3.297922554620909" height="3.297922554620909" fill="#222222" rx="2"></rect>
<rect x="151.51387161580317" y="118.53464606959407" width="3.297922554620909" height="3.297922554620909" fill="#222222" rx="2"></rect>
<rect x="0.751697690275909" y="123.2459640047668" width="3.297922554620909" height="3.297922554620909" fill="#222222" rx="2"></rect>
<rect x="5.4630156254486355" y="123.2459640047668" width="3.297922554620909" height="3.297922554620909" fill="#222222" rx="2"></rect>
<rect x="10.174333560621363" y="123.2459640047668" width="3.297922554620909" height="3.297922554620909" fill="#222222" rx="2"></rect>
<rect x="14.885651495794091" y="123.2459640047668" width="3.297922554620909" height="3.297922554620909" fill="#222222" rx="2"></rect>
<rect x="19.59696943096682" y="123.2459640047668" width="3.297922554620909" height="3.297922554620909" fill="#222222" rx="2"></rect>
<rect x="24.308287366139545" y="123.2459640047668" width="3.297922554620909" height="3.297922554620909" fill="#222222" rx="2"></rect>
<rect x="29.019605301312275" y="123.2459640047668" width="3.297922554620909" height="3.297922554620909" fill="#222222" rx="2"></rect>
<rect x="47.86487704200318" y="123.2459640047668" width="3.297922554620909" height="3.297922554620909" fill="#222222" rx="2"></rect>
<rect x="57.28751291234864" y="123.2459640047668" width="3.297922554620909" height="3.297922554620909" fill="#222222" rx="2"></rect>
<rect x="61.99883084752136" y="123.2459640047668" width="3.297922554620909" height="3.297922554620909" fill="#222222" rx="2"></rect>
<rect x="66.71014878269408" y="123.2459640047668" width="3.297922554620909" height="3.297922554620909" fill="#222222" rx="2"></rect>
<rect x="71.4214667178668" y="123.2459640047668" width="3.297922554620909" height="3.297922554620909" fill="#222222" rx="2"></rect>
<rect x="80.84410258821227" y="123.2459640047668" width="3.297922554620909" height="3.297922554620909" fill="#222222" rx="2"></rect>
<rect x="85.555420523385" y="123.2459640047668" width="3.297922554620909" height="3.297922554620909" fill="#222222" rx="2"></rect>
<rect x="94.97805639373044" y="123.2459640047668" width="3.297922554620909" height="3.297922554620909" fill="#222222" rx="2"></rect>
<rect x="99.68937432890317" y="123.2459640047668" width="3.297922554620909" height="3.297922554620909" fill="#222222" rx="2"></rect>
<rect x="109.11201019924863" y="123.2459640047668" width="3.297922554620909" height="3.297922554620909" fill="#222222" rx="2"></rect>
<rect x="113.82332813442136" y="123.2459640047668" width="3.297922554620909" height="3.297922554620909" fill="#222222" rx="2"></rect>
<rect x="123.2459640047668" y="123.2459640047668" width="3.297922554620909" height="3.297922554620909" fill="#222222" rx="2"></rect>
<rect x="132.66859987511225" y="123.2459640047668" width="3.297922554620909" height="3.297922554620909" fill="#222222" rx="2"></rect>
<rect x="146.80255368063044" y="123.2459640047668" width="3.297922554620909" height="3.297922554620909" fill="#222222" rx="2"></rect>
<rect x="0.751697690275909" y="127.95728193993953" width="3.297922554620909" height="3.297922554620909" fill="#222222" rx="2"></rect>
<rect x="29.019605301312275" y="127.95728193993953" width="3.297922554620909" height="3.297922554620909" fill="#222222" rx="2"></rect>
<rect x="47.86487704200318" y="127.95728193993953" width="3.297922554620909" height="3.297922554620909" fill="#222222" rx="2"></rect>
<rect x="57.28751291234864" y="127.95728193993953" width="3.297922554620909" height="3.297922554620909" fill="#222222" rx="2"></rect>
<rect x="76.13278465303954" y="127.95728193993953" width="3.297922554620909" height="3.297922554620909" fill="#222222" rx="2"></rect>
<rect x="80.84410258821227" y="127.95728193993953" width="3.297922554620909" height="3.297922554620909" fill="#222222" rx="2"></rect>
<rect x="85.555420523385" y="127.95728193993953" width="3.297922554620909" height="3.297922554620909" fill="#222222" rx="2"></rect>
<rect x="99.68937432890317" y="127.95728193993953" width="3.297922554620909" height="3.297922554620909" fill="#222222" rx="2"></rect>
<rect x="104.4006922640759" y="127.95728193993953" width="3.297922554620909" height="3.297922554620909" fill="#222222" rx="2"></rect>
<rect x="109.11201019924863" y="127.95728193993953" width="3.297922554620909" height="3.297922554620909" fill="#222222" rx="2"></rect>
<rect x="113.82332813442136" y="127.95728193993953" width="3.297922554620909" height="3.297922554620909" fill="#222222" rx="2"></rect>
<rect x="132.66859987511225" y="127.95728193993953" width="3.297922554620909" height="3.297922554620909" fill="#222222" rx="2"></rect>
<rect x="142.0912357454577" y="127.95728193993953" width="3.297922554620909" height="3.297922554620909" fill="#222222" rx="2"></rect>
<rect x="146.80255368063044" y="127.95728193993953" width="3.297922554620909" height="3.297922554620909" fill="#222222" rx="2"></rect>
<rect x="151.51387161580317" y="127.95728193993953" width="3.297922554620909" height="3.297922554620909" fill="#222222" rx="2"></rect>
<rect x="0.751697690275909" y="132.66859987511225" width="3.297922554620909" height="3.297922554620909" fill="#222222" rx="2"></rect>
<rect x="10.174333560621363" y="132.66859987511225" width="3.297922554620909" height="3.297922554620909" fill="#222222" rx="2"></rect>
<rect x="14.885651495794091" y="132.66859987511225" width="3.297922554620909" height="3.297922554620909" fill="#222222" rx="2"></rect>
<rect x="19.59696943096682" y="132.66859987511225" width="3.297922554620909" height="3.297922554620909" fill="#222222" rx="2"></rect>
<rect x="29.019605301312275" y="132.66859987511225" width="3.297922554620909" height="3.297922554620909" fill="#222222" rx="2"></rect>
<rect x="38.44224117165773" y="132.66859987511225" width="3.297922554620909" height="3.297922554620909" fill="#222222" rx="2"></rect>
<rect x="43.15355910683046" y="132.66859987511225" width="3.297922554620909" height="3.297922554620909" fill="#222222" rx="2"></rect>
<rect x="47.86487704200318" y="132.66859987511225" width="3.297922554620909" height="3.297922554620909" fill="#222222" rx="2"></rect>
<rect x="57.28751291234864" y="132.66859987511225" width="3.297922554620909" height="3.297922554620909" fill="#222222" rx="2"></rect>
<rect x="61.99883084752136" y="132.66859987511225" width="3.297922554620909" height="3.297922554620909" fill="#222222" rx="2"></rect>
<rect x="71.4214667178668" y="132.66859987511225" width="3.297922554620909" height="3.297922554620909" fill="#222222" rx="2"></rect>
<rect x="76.13278465303954" y="132.66859987511225" width="3.297922554620909" height="3.297922554620909" fill="#222222" rx="2"></rect>
<rect x="80.84410258821227" y="132.66859987511225" width="3.297922554620909" height="3.297922554620909" fill="#222222" rx="2"></rect>
<rect x="94.97805639373044" y="132.66859987511225" width="3.297922554620909" height="3.297922554620909" fill="#222222" rx="2"></rect>
<rect x="99.68937432890317" y="132.66859987511225" width="3.297922554620909" height="3.297922554620909" fill="#222222" rx="2"></rect>
<rect x="113.82332813442136" y="132.66859987511225" width="3.297922554620909" height="3.297922554620909" fill="#222222" rx="2"></rect>
<rect x="118.53464606959407" y="132.66859987511225" width="3.297922554620909" height="3.297922554620909" fill="#222222" rx="2"></rect>
<rect x="123.2459640047668" y="132.66859987511225" width="3.297922554620909" height="3.297922554620909" fill="#222222" rx="2"></rect>
<rect x="127.95728193993953" y="132.66859987511225" width="3.297922554620909" height="3.297922554620909" fill="#222222" rx="2"></rect>
<rect x="132.66859987511225" y="132.66859987511225" width="3.297922554620909" height="3.297922554620909" fill="#222222" rx="2"></rect>
<rect x="137.37991781028498" y="132.66859987511225" width="3.297922554620909" height="3.297922554620909" fill="#222222" rx="2"></rect>
<rect x="146.80255368063044" y="132.66859987511225" width="3.297922554620909" height="3.297922554620909" fill="#222222" rx="2"></rect>
<rect x="151.51387161580317" y="132.66859987511225" width="3.297922554620909" height="3.297922554620909" fill="#222222" rx="2"></rect>
<rect x="0.751697690275909" y="137.37991781028498" width="3.297922554620909" height="3.297922554620909" fill="#222222" rx="2"></rect>
<rect x="10.174333560621363" y="137.37991781028498" width="3.297922554620909" height="3.297922554620909" fill="#222222" rx="2"></rect>
<rect x="14.885651495794091" y="137.37991781028498" width="3.297922554620909" height="3.297922554620909" fill="#222222" rx="2"></rect>
<rect x="19.59696943096682" y="137.37991781028498" width="3.297922554620909" height="3.297922554620909" fill="#222222" rx="2"></rect>
<rect x="29.019605301312275" y="137.37991781028498" width="3.297922554620909" height="3.297922554620909" fill="#222222" rx="2"></rect>
<rect x="38.44224117165773" y="137.37991781028498" width="3.297922554620909" height="3.297922554620909" fill="#222222" rx="2"></rect>
<rect x="43.15355910683046" y="137.37991781028498" width="3.297922554620909" height="3.297922554620909" fill="#222222" rx="2"></rect>
<rect x="47.86487704200318" y="137.37991781028498" width="3.297922554620909" height="3.297922554620909" fill="#222222" rx="2"></rect>
<rect x="52.57619497717591" y="137.37991781028498" width="3.297922554620909" height="3.297922554620909" fill="#222222" rx="2"></rect>
<rect x="57.28751291234864" y="137.37991781028498" width="3.297922554620909" height="3.297922554620909" fill="#222222" rx="2"></rect>
<rect x="66.71014878269408" y="137.37991781028498" width="3.297922554620909" height="3.297922554620909" fill="#222222" rx="2"></rect>
<rect x="71.4214667178668" y="137.37991781028498" width="3.297922554620909" height="3.297922554620909" fill="#222222" rx="2"></rect>
<rect x="80.84410258821227" y="137.37991781028498" width="3.297922554620909" height="3.297922554620909" fill="#222222" rx="2"></rect>
<rect x="90.26673845855771" y="137.37991781028498" width="3.297922554620909" height="3.297922554620909" fill="#222222" rx="2"></rect>
<rect x="94.97805639373044" y="137.37991781028498" width="3.297922554620909" height="3.297922554620909" fill="#222222" rx="2"></rect>
<rect x="104.4006922640759" y="137.37991781028498" width="3.297922554620909" height="3.297922554620909" fill="#222222" rx="2"></rect>
<rect x="109.11201019924863" y="137.37991781028498" width="3.297922554620909" height="3.297922554620909" fill="#222222" rx="2"></rect>
<rect x="118.53464606959407" y="137.37991781028498" width="3.297922554620909" height="3.297922554620909" fill="#222222" rx="2"></rect>
<rect x="132.66859987511225" y="137.37991781028498" width="3.297922554620909" height="3.297922554620909" fill="#222222" rx="2"></rect>
<rect x="142.0912357454577" y="137.37991781028498" width="3.297922554620909" height="3.297922554620909" fill="#222222" rx="2"></rect>
<rect x="146.80255368063044" y="137.37991781028498" width="3.297922554620909" height="3.297922554620909" fill="#222222" rx="2"></rect>
<rect x="0.751697690275909" y="142.0912357454577" width="3.297922554620909" height="3.297922554620909" fill="#222222" rx="2"></rect>
<rect x="10.174333560621363" y="142.0912357454577" width="3.297922554620909" height="3.297922554620909" fill="#222222" rx="2"></rect>
<rect x="14.885651495794091" y="142.0912357454577" width="3.297922554620909" height="3.297922554620909" fill="#222222" rx="2"></rect>
<rect x="19.59696943096682" y="142.0912357454577" width="3.297922554620909" height="3.297922554620909" fill="#222222" rx="2"></rect>
<rect x="29.019605301312275" y="142.0912357454577" width="3.297922554620909" height="3.297922554620909" fill="#222222" rx="2"></rect>
<rect x="38.44224117165773" y="142.0912357454577" width="3.297922554620909" height="3.297922554620909" fill="#222222" rx="2"></rect>
<rect x="52.57619497717591" y="142.0912357454577" width="3.297922554620909" height="3.297922554620909" fill="#222222" rx="2"></rect>
<rect x="57.28751291234864" y="142.0912357454577" width="3.297922554620909" height="3.297922554620909" fill="#222222" rx="2"></rect>
<rect x="85.555420523385" y="142.0912357454577" width="3.297922554620909" height="3.297922554620909" fill="#222222" rx="2"></rect>
<rect x="94.97805639373044" y="142.0912357454577" width="3.297922554620909" height="3.297922554620909" fill="#222222" rx="2"></rect>
<rect x="104.4006922640759" y="142.0912357454577" width="3.297922554620909" height="3.297922554620909" fill="#222222" rx="2"></rect>
<rect x="113.82332813442136" y="142.0912357454577" width="3.297922554620909" height="3.297922554620909" fill="#222222" rx="2"></rect>
<rect x="118.53464606959407" y="142.0912357454577" width="3.297922554620909" height="3.297922554620909" fill="#222222" rx="2"></rect>
<rect x="123.2459640047668" y="142.0912357454577" width="3.297922554620909" height="3.297922554620909" fill="#222222" rx="2"></rect>
<rect x="137.37991781028498" y="142.0912357454577" width="3.297922554620909" height="3.297922554620909" fill="#222222" rx="2"></rect>
<rect x="142.0912357454577" y="142.0912357454577" width="3.297922554620909" height="3.297922554620909" fill="#222222" rx="2"></rect>
<rect x="0.751697690275909" y="146.80255368063044" width="3.297922554620909" height="3.297922554620909" fill="#222222" rx="2"></rect>
<rect x="29.019605301312275" y="146.80255368063044" width="3.297922554620909" height="3.297922554620909" fill="#222222" rx="2"></rect>
<rect x="43.15355910683046" y="146.80255368063044" width="3.297922554620909" height="3.297922554620909" fill="#222222" rx="2"></rect>
<rect x="47.86487704200318" y="146.80255368063044" width="3.297922554620909" height="3.297922554620909" fill="#222222" rx="2"></rect>
<rect x="57.28751291234864" y="146.80255368063044" width="3.297922554620909" height="3.297922554620909" fill="#222222" rx="2"></rect>
<rect x="61.99883084752136" y="146.80255368063044" width="3.297922554620909" height="3.297922554620909" fill="#222222" rx="2"></rect>
<rect x="66.71014878269408" y="146.80255368063044" width="3.297922554620909" height="3.297922554620909" fill="#222222" rx="2"></rect>
<rect x="76.13278465303954" y="146.80255368063044" width="3.297922554620909" height="3.297922554620909" fill="#222222" rx="2"></rect>
<rect x="80.84410258821227" y="146.80255368063044" width="3.297922554620909" height="3.297922554620909" fill="#222222" rx="2"></rect>
<rect x="118.53464606959407" y="146.80255368063044" width="3.297922554620909" height="3.297922554620909" fill="#222222" rx="2"></rect>
<rect x="127.95728193993953" y="146.80255368063044" width="3.297922554620909" height="3.297922554620909" fill="#222222" rx="2"></rect>
<rect x="142.0912357454577" y="146.80255368063044" width="3.297922554620909" height="3.297922554620909" fill="#222222" rx="2"></rect>
<rect x="0.751697690275909" y="151.51387161580317" width="3.297922554620909" height="3.297922554620909" fill="#222222" rx="2"></rect>
<rect x="5.4630156254486355" y="151.51387161580317" width="3.297922554620909" height="3.297922554620909" fill="#222222" rx="2"></rect>
<rect x="10.174333560621363" y="151.51387161580317" width="3.297922554620909" height="3.297922554620909" fill="#222222" rx="2"></rect>
<rect x="14.885651495794091" y="151.51387161580317" width="3.297922554620909" height="3.297922554620909" fill="#222222" rx="2"></rect>
<rect x="19.59696943096682" y="151.51387161580317" width="3.297922554620909" height="3.297922554620909" fill="#222222" rx="2"></rect>
<rect x="24.308287366139545" y="151.51387161580317" width="3.297922554620909" height="3.297922554620909" fill="#222222" rx="2"></rect>
<rect x="29.019605301312275" y="151.51387161580317" width="3.297922554620909" height="3.297922554620909" fill="#222222" rx="2"></rect>
<rect x="43.15355910683046" y="151.51387161580317" width="3.297922554620909" height="3.297922554620909" fill="#222222" rx="2"></rect>
<rect x="47.86487704200318" y="151.51387161580317" width="3.297922554620909" height="3.297922554620909" fill="#222222" rx="2"></rect>
<rect x="52.57619497717591" y="151.51387161580317" width="3.297922554620909" height="3.297922554620909" fill="#222222" rx="2"></rect>
<rect x="57.28751291234864" y="151.51387161580317" width="3.297922554620909" height="3.297922554620909" fill="#222222" rx="2"></rect>
<rect x="61.99883084752136" y="151.51387161580317" width="3.297922554620909" height="3.297922554620909" fill="#222222" rx="2"></rect>
<rect x="90.26673845855771" y="151.51387161580317" width="3.297922554620909" height="3.297922554620909" fill="#222222" rx="2"></rect>
<rect x="99.68937432890317" y="151.51387161580317" width="3.297922554620909" height="3.297922554620909" fill="#222222" rx="2"></rect>
<rect x="104.4006922640759" y="151.51387161580317" width="3.297922554620909" height="3.297922554620909" fill="#222222" rx="2"></rect>
<rect x="109.11201019924863" y="151.51387161580317" width="3.297922554620909" height="3.297922554620909" fill="#222222" rx="2"></rect>
<rect x="113.82332813442136" y="151.51387161580317" width="3.297922554620909" height="3.297922554620909" fill="#222222" rx="2"></rect>
<rect x="118.53464606959407" y="151.51387161580317" width="3.297922554620909" height="3.297922554620909" fill="#222222" rx="2"></rect>
<rect x="123.2459640047668" y="151.51387161580317" width="3.297922554620909" height="3.297922554620909" fill="#222222" rx="2"></rect>
<rect x="137.37991781028498" y="151.51387161580317" width="3.297922554620909" height="3.297922554620909" fill="#222222" rx="2"></rect>
<rect x="142.0912357454577" y="151.51387161580317" width="3.297922554620909" height="3.297922554620909" fill="#222222" rx="2"></rect>
<rect x="146.80255368063044" y="151.51387161580317" width="3.297922554620909" height="3.297922554620909" fill="#222222" rx="2"></rect>
</g>
</g>
</g>
</svg>